<?xml version="1.0" encoding="UTF-8"?>
<svg id="_Слой_2" data-name="Слой 2" xmlns="http://www.w3.org/2000/svg" viewBox="0 0 445.864905721686227 445.864905721688046">
  <defs>
    <style>
      .cls-1 {
        fill: #ffce43;
      }

      .cls-2 {
        fill: #8e8e8e;
      }

      .cls-3 {
        fill: #dbdddd;
      }

      .cls-4 {
        stroke: #998017;
        stroke-width: 3px;
      }

      .cls-4, .cls-5 {
        fill: #bfa01b;
      }

      .cls-4, .cls-6 {
        stroke-miterlimit: 10;
      }

      .cls-7 {
        fill: #fcfcfc;
      }

      .cls-8 {
        fill: #aa8e1a;
      }

      .cls-6 {
        fill: #67686d;
        stroke: #383838;
        stroke-width: 4px;
      }

      .cls-9 {
        fill: #998017;
      }
    </style>
  </defs>
  <g id="_Слой_2-2" data-name="Слой 2">
    <g>
      <g>
        <rect class="cls-1" width="445.864905721686227" height="445.864905721688046" rx="52.128351258579428" ry="52.128351258579428"/>
        <g>
          <path class="cls-5" d="M51.808421122255822,408.677602407102313c-8.15869140625,0-14.7958984375-6.6376953125-14.7958984375-14.7958984375V51.811391469602313c0-8.16015625,6.63916015625-14.798828125,14.79931640625-14.798828125h153.224609375v371.6650390625H51.808421122255822Z"/>
          <path class="cls-9" d="M203.536448466005822,38.512563344602313v368.6650390625H51.808543192568322c-7.3431396484375,0-13.2960205078125-5.95263671875-13.2960205078125-13.2958984375V51.811879750852313c0-7.34521484375,5.954345703125-13.29931640625,13.2991943359375-13.29931640625h151.7247314453125M206.536448466005822,35.512563344602313H51.811717020693322c-8.9874267578125,0-16.2991943359375,7.31201171875-16.2991943359375,16.29931640625v342.06982421875c0,8.9853515625,7.3104248046875,16.2958984375,16.2960205078125,16.2958984375h154.7279052734375V35.512563344602313h0Z"/>
        </g>
        <g>
          <path class="cls-5" d="M240.549143778505822,408.677602407102313V37.012563344602313h153.224609375c8.16015625,0,14.79931640625,6.638671875,14.79931640625,14.798828125v342.0703125c0,8.158203125-6.63720703125,14.7958984375-14.7958984375,14.7958984375h-153.22802734375Z"/>
          <path class="cls-9" d="M393.773753153505822,38.512563344602313c7.344970703125,0,13.2991943359375,5.9541015625,13.2991943359375,13.29931640625v342.06982421875c0,7.34326171875-5.9527587890625,13.2958984375-13.2960205078125,13.2958984375h-151.7279052734375V38.512563344602313h151.7247314453125M393.773753153505822,35.512563344602313h-154.7247314453125v374.6650390625h154.7279052734375c8.985595703125,0,16.2960205078125-7.310546875,16.2960205078125-16.2958984375V51.811879750852313c0-8.9873046875-7.311767578125-16.29931640625-16.2991943359375-16.29931640625h0Z"/>
        </g>
        <rect class="cls-8" x="38.5125732421875" y="142.537628517318808" width="165.02392578125" height="23.717599267318292"/>
        <rect class="cls-8" x="242.049072672474722" y="142.537628517318808" width="165.023925781251819" height="23.717599267318292"/>
        <rect class="cls-8" x="38.5125732421875" y="279.434888482157476" width="165.02392578125" height="23.717599267331025"/>
        <rect class="cls-8" x="242.049072672474722" y="279.434888482157476" width="165.023925781251819" height="23.717599267331025"/>
        <g>
          <rect class="cls-3" x="323.493479716005822" y="40.012563344602313" width="13.59130859375" height="365.6650390625"/>
          <path class="cls-2" d="M335.584544169130822,41.512563344602313v362.6650390625h-10.5909423828125V41.512563344602313h10.5909423828125M338.584544169130822,38.512563344602313h-16.5909423828125v368.6650390625h16.5909423828125V38.512563344602313h0Z"/>
        </g>
        <line class="cls-4" x1="222.792775665406225" x2="222.792775665406225" y2="445.864905721688046"/>
        <path class="cls-7" d="M20.441692258638795,57.304363161898436c-.67310522403568-.037922368481304-1.147724190275767-.196241695080971-1.423856898716622-.474957979780811,5.601612856222346-.044193572679433,11.394083512550424-.134859541070909,16.897488797800179-1.257584294169646,4.768457714471879-.972791432330268,9.555993979658524-2.842726980439693,12.054268142768706-7.291659341979539,1.353481954509334-3.361294991031173,2.307756830676226-6.418471489760122,2.85619003793181-10.047036941950864.589203139996243-5.357177322226562.902790370659204-10.715727970991793.940761691981606-16.075651946292055.646416647712613-.424094264822998.446575066762307-.229767988779713.474691088114923.352688061479057.080167534000793,1.660763613353993.180338908059639,3.318563269587685.237237361241569,5.109328706061206.274424883693428,6.40772161735913.808300052296545,12.894408102172747,2.847713797433244,18.998319191443443,2.223408425379603,5.023282480338821,6.445733172335167,7.426151634779671,11.625403796286264,8.670745979718049,5.913366784574464,1.420890128731116,12.452125907027948,1.4732303417004,18.512900559879199,1.54085058569035-.185512018382724.27372940846908-.660130984622811.432048735070566-1.423856898712984.474957979780811-2.803231531255733.064575578469885-4.932484014938382.495486199959487-7.731515329236572.715271509108788-1.594895637193986.125234265469771-1.726608470889914.217921457489865-3.453216941783467.402316536899889l-2.494416610024928.308618391871278c-11.695839804357092,1.187370395979087-15.073436903145193,7.051222657868493-16.894603351654951,18.03995791980924-.10228530069071.617179221249899-.274200779633247,1.940470153720526-.37477991385822,2.666875012020682-.148634856421268,2.608103942990056-.406308061319578,4.285221363519668-.613629108327586,6.83939739725065-.068073912541877,2.145671926999057-.167338604103861,3.605724892258877-.23723722169234,5.346807803898628-.023494932542235.585227962490535.167358114274975.774939086149971-.474691227664152.352687953529312-.148292211724765-4.59400307857868-.534667883450311-6.771364328407799-.702788315888029-11.359882192358782-.272871187080455-2.202595972699783-.608163773878914-5.82121483021001-1.208115583074687-8.342423940761364-2.323329574213858-8.477672872888434-8.730473299354344-13.136539877337782-17.364059393486968-13.695521601577639"/>
        <path class="cls-7" d="M383.417478102095629,274.531200734998492c-.506270008980209-.028522966620585-.863250373589835-.147601416811085-1.070941093828878-.357235350580595,4.213202467779411-.033239796159251,8.569956904450009-.101433384608754,12.709293435589643-.945880657529415,3.586552360149653-.731676281189721,7.187454479739245-2.138131398340192,9.066508805590274-5.484355652999511,1.018009215778875-2.5281676393206,1.735758436660035-4.82759530409021,2.148257515320438-7.556788004490954.44316381498902-4.029352490739257.679025615518185-8.059737916630183.70758540155839-12.091156277649134.486196437581384-.318978667211923.335887399151034-.172817915510677.357034610429764.265271136930096.060297285930574,1.249128337458387.135640279320796,2.49602736136876.178435936490132,3.842935394799497.206406195291493,4.819509884750005.607955576801032,9.698412480678599,2.141882187650481,14.289414023369318,1.672316546180809,3.778216504029842,4.848099932190962,5.585512815130642,8.743942364590112,6.521623199780151,4.447685366549194,1.068709664599737,9.365753926109392,1.108076882599562,13.924310788130242,1.158936837789952-.139531187489411.205883099899438-.496511552100856.324961550089938-1.070941093830697.357235350580595-2.108425253300084.048569937540378-3.709923259149946.372675465800057-5.815189357239433.537984999080436-1.199586334680134.094193820579676-1.298652951780241.163907654108698-2.597305903560482.302598746038711l-1.876152902168542.232124533340539c-8.796920171280362.89306990877958-11.337349293580701,5.30351337473985-12.707123173360742,13.568591257089793-.076932964189837.464205771590059-.206237637459708,1.459507083080098-.281887323970295,2.005865930110303-.111794363510853,1.961661801860828-.30560093504937,3.223090507539382-.461535586240643,5.144190919989342-.051201177888288,1.613847741700738-.12586221823949,2.712013379750715-.178435831528986,4.021553151280386-.017671501100267.44017392115893.125876892629094.58286342772044-.35703471539091.265271055730409-.111536646400054-3.455337882949607-.402145614809342-5.093020462320055-.528595878149645-8.544232690670469-.205237596439474-1.656662648059864-.457424884349166-4.378374107191121-.908673213709335-6.274678746411155-1.747471334920192-6.376405007978974-6.566546563270094-9.880529706359084-13.060220291050427-10.300962756708032"/>
        <path class="cls-7" d="M344.283109222276835,236.979977943577978c-.720787416943494-.040608756329675-1.22902798096402-.210143287329629-1.5247216920543-.508603592999862,5.998426274492886-.047324207211204,12.201230550863329-.14441287452064,18.094492314852687-1.346670479761087,5.106251141851317-1.04170313747818,10.232932342480126-3.044103305310273,12.908182090281116-7.808194194109092,1.449361447570482-3.599406226028805,2.471236332030458-6.873150468349195,3.058520074169792-10.758760364249611.630941781710135-5.736675138310602.966743261040392-11.474820888441172,1.007404437979858-17.214437250360788.692208244920039-.454136736379951.478210058920013-.246044554718537.508317794950926.377672179240108.085846532889263,1.778410673810868.193113960598566,3.553647426340831.254043051079861,5.471269140180084.293864905508599,6.861639084270791.865559330110045,13.807836839030642,3.049443384108599,20.344143719710701,2.38091275853003,5.379127474119741,6.902343344991095,7.952213804810526,12.448937363780715,9.284974138559846,6.332264581960771,1.52154475863972,13.334223755049607,1.577592707100848,19.824338451409858,1.650003110789839-.198653529600051.293120163440108-.706894093620576.462654694430967-1.524721692059757.508603592999862-3.001810032599678.069150056689978-5.281896923819659.530586014549044-8.279209199730758.765940725239489-1.707876667089295.134105752709729-1.848919924199436.233358825380492-3.697839848409785.430816293021053l-2.671118928979922.330480652279221c-12.524362997850403,1.271482689649929-16.141226158879363,7.550725182889437-18.091402466199725,19.317892963050326-.109531103069457.660899664409953-.293624926120174,2.077931383999385-.401328999369071,2.855794135279211-.159164021320976,2.792859774470344-.435090573580965,4.588782745031494-.657098064550155,7.323894403700251-.07289620973097,2.297669473720816-.179192726340261,3.861151330431312-.254042901649882,5.72557105226042-.025159293270917.626685006069238.179213618599533.829835101931167-.508317944380906.377672063650607-.158797103960751-4.919438290180551-.572543294680145-7.25104193099105-.752573233390649-12.164606438680494-.292201146368825-2.358625969680361-.651245570528772-6.233584662721114-1.293697447888917-8.933394049829076-2.487912235270414-9.078223899541626-9.348932489940125-14.067121020099876-18.594114368699593-14.665700527060835"/>
        <path class="cls-7" d="M354.439176340016274,298.554656279427945c-.288892368889719-.016276033040413-.492595731440815-.084225654691181-.611110087620546-.203848864950487,2.404175676991144-.018967592950503,4.890266276090188-.057880834820025,7.252291904600497-.539746970989654,2.046590928039222-.417515733490291,4.101370245509315-1.220079865950538,5.17361321045064-3.129532597989964.580905620900012-1.442645871478817.990474169338995-2.754766070989717,1.225858122348654-4.31212267995943.252882142051021-2.299265541199929.387471734709834-4.599120505181418.40376877799099-6.899564891949922.277437806129456-.182018490460905.191667103919826-.098614921120316.203734316779446.151371414038294.034407382350764.712788903299952.07740028229091,1.424305695541989.101820727029917,2.192890532811361.117781368950091,2.750152295919179.346917106789988,5.534195797559732,1.222220175259281,8.153954597750271.95427238431148,2.155960054338721,2.766466607210532,3.187255812250442,4.989547432071049,3.721427581820535,2.537978428270435.609836769308458,5.34437116610934.632300847099032,7.945616089340547.661323014468508-.079620547490777.117482875530186-.283323910030958.185432497180955-.611110087631459.203848864950487-1.203128676928827.027715416799765-2.116989945619935.212659443050143-3.318315916849315.306989863229319-.684518797839701.053749729360788-.741049086389467.093530467220262-1.482098172778933.172671631780759l-1.070587328331385.132456999479473c-5.019778107009188.509611624171157-6.469420736739266,3.02633874248022-7.251053489950209,7.742632195049737-.04390018346021.264889293521264-.117685184959555.832837124809885-.160853092898833,1.14460534886166-.063793110261031,1.119381189630076-.174384768009986,1.839189040219935-.263365608230743,2.93542472316949-.029216878949228.920908386580777-.071820636680059,1.547553589718518-.101820667139691,2.294815011598985-.010083871689858.251176021811261.071829010330475.33259879786965-.203734376669672.151371367721367-.063646049389718-1.971716136951727-.229475965879828-2.90622537406125-.301632158179928-4.875587292690398-.117114532509731-.945339815471016-.261019922359992-2.498427410921067-.51851532307046-3.580513905610132-.997157889220034-3.638561864530857-3.747062157570326-5.638117175099978-7.452540959029648-5.878028482749869"/>
        <path class="cls-7" d="M28.725601163587271,350.963825811428251c-.497758206307481-.028043416459695-.84873674112896-.145119827710005-1.052935604468075-.351229233780032,4.142366851654515-.032680943009836,8.425872165546025-.099728008141028,12.495614971769101-.929977780870104,3.526252469950123-.71937477406027,7.066613440088986-2.102183480779786,8.914075652355677-5.392148427079519,1.000893658056157-2.485662131040954,1.706575524309301-4.74643004076097,2.112139349654171-7.429737444181228.435713002429111-3.961607902519972.667609312069544-7.92423137366859.6956889289213-11.887870413449491.478022127299482-.313615751330872.330240200601111-.169912367160578.351031868616701.260811193549671.059283521361067,1.228127026441143.1333597901139,2.454062220269407.175435933615518,3.778324994860668.202935934819834,4.738480559739401.597734157778177,9.535355274480025,2.105871208932513,14.049169351010278,1.644200267917768,3.714694208108995,4.766589929189649,5.491604856819322,8.596932447653671,6.411976630199206,4.372907442702854,1.050741691749863,9.208289632624655,1.089447037649734,13.690204513524804,1.139451895960519-.137185281324491.202421634108759-.48816381614597.319498045369983-1.052935604464437.351229233780032-2.072976778406883.047753342209035-3.647549162044015.366409757840302-5.717419899403467.528939979480128-1.179417962099251.092610161269477-1.276818994669156.161151911959678-2.553637989334675.29751122207017l-1.844609569569002.228221876279349c-8.649019550510275.87805492725056-11.146737014994869,5.214346608969208-12.493481197660003,13.340465614161076-.075639507740561.456401185379946-.202770210904418,1.434968721998302-.277148016415595,1.972141761829334-.109914790264156,1.928680827550124-.300462935942051,3.168901418899623-.45377589326381,5.057702806459929-.050340344114375,1.586714486180426-.123746125344042,2.666416914789806-.175435830420611,3.953939691578853-.017374394166836.432773377011472.12376055302957.573063877300228-.351031971811608.260811113730597-.109661406095256-3.397244071949899-.395384431929415-5.007392666080705-.51970871571757-8.400580447128959-.20178698334712-1.628809555229964-.449734303667356-4.304761497800428-.893395897353912-6.16918399783026-1.718091496273701-6.269199958880563-6.456144707386557-9.714410604619843-12.840641773713287-10.127775009581455"/>
        <path class="cls-7" d="M63.96831485652001,376.879268078697351c-.302814562521235-.017060401569324-.516334721767635-.088284626119275-.6405604777392-.213672673638939,2.520036817270011-.0198816721404,5.12593617011953-.060670206490613,7.601791659453738-.565758256319896,2.145219477053615-.437636496470077,4.299021955368517-1.278877501190436,5.422938054583938-3.280349869310157.608900408584304-1.512169324891147,1.038206732220715-2.887522733180958,1.284934221170261-4.519930892780394.265068944208906-2.41007089121922.406144628475886-4.820759610469395.423227052800939-7.232066157750523.290807985726133-.190790257869594.200903853732598-.103367334730137.213552605222503.15866624894079.036065530126507.747139361090376.0811303279188,1.492945306019465.106727633650735,2.298569497990684.123457444886299,2.882686612769248.363635607005563,5.800897703658848,1.2811209554784,8.54690694583951,1.000260324231931,2.259859279629381,2.899787137295789,3.340854859239698,5.230001846659434,3.900769236099222,2.66028774098595.639225796139726,5.601925114151527.66277245441961,8.328528265494242.693193247290765-.083457591299521.123144566579867-.296977750545921.194368791129818-.640560477735562.213672673638939-1.261109406776086.029051067871478-2.219011137916823.222907847870374-3.478230963668466.32178420458149-.717506873217644.056340016330068-.776761448418256.098037852718335-1.553522896829236.180992958859861l-1.122180674788979.138840317949871c-5.261689387043589.53417063805864-6.781192655358609,3.172182933858494-7.600493563582859,8.11576224683995-.046015804771741.277654739858917-.123356625623273.872972901859612-.16860486533551,1.199765744238903-.066867404108052,1.173325991690945-.182788653906755,1.927822554571321-.276057625691465,3.076887619939953-.030624887924205.965288461129603-.07528179010842,1.622132716900524-.106727570873772,2.405405883369895-.010569829890301.263280603259773.075290567285265.348627275459876-.213552667999465.158666200381049-.066713256135699-2.066736347880578-.240534786298667-3.046281106660899-.316168302990263-5.110549782610178-.122758472512942-.9908972803496-.273598897401826-2.61883069571013-.543503420714842-3.7530647004005-1.045212551449367-3.813910084980307-3.927639183806605-5.909827221588785-7.811691041857557-6.16130024577069"/>
        <path class="cls-7" d="M60.751422793120582,102.67541733717735c-.370907106287632-.020896697069475-.632440579913236-.10813679147941-.784600420876814-.261720283249815,3.086706120921008-.024352373999136,6.278582298204128-.074312841959909,9.311172235404229-.692977761589646,2.627605297329865-.536045839940925,5.265723616674222-1.566452912020395,6.642369655761286-4.017987336908845.74582109487892-1.852204015041934,1.271663593623089-3.536826935900535,1.573871579286788-5.536307349651906.324673801169411-2.952012653458951.497472537739668-5.904782063149469.518396209718048-8.85830822907883.356200664769858-.233692401929147.246080196437106-.126611080690054.261573215579119.194344812129202.044175423088745.915145216620658.099373738532449,1.828657177820787.130726994859288,2.815438445240943.151218763232464,3.530903338938515.445404704500106,7.105319385009352,1.569200841753627,10.468811329988966,1.225184348164476,2.768023634831479,3.551849181214493,4.092097810811538,6.406048753669893,4.777917606141273,3.25849463675695.782965615449939,6.861604727466329.811807104479158,10.201326821555995.849068483728843-.102224323127302.150835529389951-.363757796752907.238075623799887-.784600420873176.261720283249815-1.544689386428217.035583650351327-2.717990155877487.273032129400235-4.260365059722972.394142366119922-.878849404969515.069008941480206-.951428289015894.120083182111557-1.902856578035426.221692028510006l-1.374520377594308.170060713520797c-6.444861728228716.65428717820032-8.306048837443086,3.885497390960154-9.309582242574834,9.940717068719096-.056363171075645.340089707880907-.151095273195097,1.069274377699912-.206518280323507,1.469551651391157-.081903575428441,1.437166511059331-.223891513400304,2.361323310229636-.338133457855292,3.768773449959554-.03751136822757,1.182348520071173-.092210066424741,1.9868943786405-.130726917963329,2.946298646360447-.012946619830473.322483324060158.092220817285124.427021517180037-.261573292475077.194344752639154-.081714764903154-2.531474021168833-.294622757923207-3.731284588200651-.38726364210379-6.25973604319006-.150362616092025-1.213715878868243-.335121846430411-3.207715332850057-.665718581552937-4.596999418239648-1.28024477980216-4.671526829779395-4.8108296776918-7.238743391919343-9.568270744442998-7.546764019900365"/>
        <g>
          <g>
            <rect class="cls-3" x="108.500803934755822" y="19.169789907102313" width="13.59130859375" height="407.3505859375"/>
            <path class="cls-2" d="M120.591868387880822,20.669301625852313v404.3515625h-10.5908203125V20.669301625852313h10.5908203125M123.591868387880822,17.669301625852313h-16.5908203125v410.3515625h16.5908203125V17.669301625852313h0Z"/>
          </g>
          <g>
            <rect class="cls-3" x="98.081370341005822" y="421.225453969602313" width="34.43017578125" height="13.5908203125"/>
            <path class="cls-2" d="M131.011424051943322,422.725453969602313v10.5908203125h-31.429931640625v-10.5908203125h31.429931640625M134.011424051943322,419.725453969602313h-37.429931640625v16.5908203125h37.429931640625v-16.5908203125h0Z"/>
          </g>
          <g>
            <rect class="cls-3" x="98.081370341005822" y="10.873891469602313" width="34.43017578125" height="13.5908203125"/>
            <path class="cls-2" d="M131.011424051943322,12.373891469602313v10.5908203125h-31.429931640625v-10.5908203125h31.429931640625M134.011424051943322,9.373891469602313h-37.429931640625v16.5908203125h37.429931640625V9.373891469602313h0Z"/>
          </g>
        </g>
        <g>
          <g>
            <polygon class="cls-3" points="171.847971903505822 426.520375844602313 171.847971903505822 342.120961782102313 138.624827372255822 342.120961782102313 138.624827372255822 328.530141469602313 171.847971903505822 328.530141469602313 171.847971903505822 19.169789907102313 185.438792216005822 19.169789907102313 185.438792216005822 426.520375844602313 171.847971903505822 426.520375844602313"/>
            <path class="cls-2" d="M183.939036356630822,20.669301625852313v404.3515625h-10.5909423828125v-84.39990234375h-33.223388671875v-10.5908203125h33.223388671875V20.669301625852313h10.5909423828125M186.939036356630822,17.669301625852313h-16.5909423828125v309.36083984375h-33.223388671875v16.5908203125h33.223388671875v84.39990234375h16.5909423828125V17.669301625852313h0Z"/>
          </g>
          <g>
            <rect class="cls-3" x="161.428538309755822" y="10.873891469602313" width="34.43017578125" height="13.5908203125"/>
            <path class="cls-2" d="M194.358469950380822,12.373891469602313v10.5908203125h-31.4298095703125v-10.5908203125h31.4298095703125M197.358469950380822,9.373891469602313h-37.4298095703125v16.5908203125h37.4298095703125V9.373891469602313h0Z"/>
          </g>
          <g>
            <rect class="cls-3" x="161.428538309755822" y="421.225453969602313" width="34.43017578125" height="13.5908203125"/>
            <path class="cls-2" d="M194.358469950380822,422.725453969602313v10.5908203125h-31.4298095703125v-10.5908203125h31.4298095703125M197.358469950380822,419.725453969602313h-37.4298095703125v16.5908203125h37.4298095703125v-16.5908203125h0Z"/>
          </g>
        </g>
        <g>
          <g>
            <rect class="cls-3" x="323.493479716005822" y="19.169789907102313" width="13.59130859375" height="407.3505859375"/>
            <path class="cls-2" d="M335.584544169130822,20.669301625852313v404.3515625h-10.5909423828125V20.669301625852313h10.5909423828125M338.584544169130822,17.669301625852313h-16.5909423828125v410.3515625h16.5909423828125V17.669301625852313h0Z"/>
          </g>
          <g>
            <rect class="cls-3" x="313.074046122255822" y="421.225453969602313" width="34.43017578125" height="13.5908203125"/>
            <path class="cls-2" d="M346.004099833193322,422.725453969602313v10.5908203125h-31.429931640625v-10.5908203125h31.429931640625M349.004099833193322,419.725453969602313h-37.429931640625v16.5908203125h37.429931640625v-16.5908203125h0Z"/>
          </g>
          <g>
            <rect class="cls-3" x="313.074046122255822" y="10.873891469602313" width="34.43017578125" height="13.5908203125"/>
            <path class="cls-2" d="M346.004099833193322,12.373891469602313v10.5908203125h-31.429931640625v-10.5908203125h31.429931640625M349.004099833193322,9.373891469602313h-37.429931640625v16.5908203125h37.429931640625V9.373891469602313h0Z"/>
          </g>
        </g>
        <g>
          <g>
            <polygon class="cls-3" points="260.146311747255822 426.520375844602313 260.146311747255822 19.169789907102313 273.737620341005822 19.169789907102313 273.737620341005822 328.530141469602313 306.960764872255822 328.530141469602313 306.960764872255822 342.120961782102313 273.737620341005822 342.120961782102313 273.737620341005822 426.520375844602313 260.146311747255822 426.520375844602313"/>
            <path class="cls-2" d="M272.237498270693322,20.669301625852313v309.36083984375h33.2232666015625v10.5908203125h-33.2232666015625v84.39990234375h-10.5909423828125V20.669301625852313h10.5909423828125M275.237498270693322,17.669301625852313h-16.5909423828125v410.3515625h16.5909423828125v-84.39990234375h33.2232666015625v-16.5908203125h-33.2232666015625V17.669301625852313h0Z"/>
          </g>
          <g>
            <rect class="cls-3" x="249.726878153505822" y="10.873891469602313" width="34.43017578125" height="13.5908203125"/>
            <path class="cls-2" d="M282.656931864443322,12.373891469602313v10.5908203125h-31.429931640625v-10.5908203125h31.429931640625M285.656931864443322,9.373891469602313h-37.429931640625v16.5908203125h37.429931640625V9.373891469602313h0Z"/>
          </g>
          <g>
            <rect class="cls-3" x="249.726878153505822" y="421.225453969602313" width="34.43017578125" height="13.5908203125"/>
            <path class="cls-2" d="M282.656931864443322,422.725453969602313v10.5908203125h-31.429931640625v-10.5908203125h31.429931640625M285.656931864443322,419.725453969602313h-37.429931640625v16.5908203125h37.429931640625v-16.5908203125h0Z"/>
          </g>
        </g>
      </g>
      <path class="cls-6" d="M285.591327372563683,204.338633132367249h-9.802001953125v-23.022216796869543c0-29.192138671880457-23.664794921875-52.85693359375-52.85687255859375-52.85693359375s-52.85687255859375,23.664794921869543-52.85687255859375,52.85693359375v23.022216796869543h-9.802001953125c-23.44879150390625,0-42.457763671875,19.009033203130457-42.457763671875,42.457763671880457s19.00897216796875,42.457763671869543,42.457763671875,42.457763671869543h125.3177490234375c23.44879150390625,0,42.457763671875-19.009033203119543,42.457763671875-42.457763671869543s-19.00897216796875-42.457763671880457-42.457763671875-42.457763671880457ZM192.200702372563683,204.338633132367249h-7.3328857421875v-23.022216796869543c0-21.0224609375,17.0421142578125-38.064575195310681,38.06463623046875-38.064575195310681s38.06463623046875,17.042114257810681,38.06463623046875,38.064575195310681v23.022216796869543h-68.79638671875Z"/>
    </g>
  </g>
</svg>