<?xml version="1.0" encoding="UTF-8"?>
<svg id="_Слой_2" data-name="Слой 2" xmlns="http://www.w3.org/2000/svg" viewBox="0 0 445.86490572168259 445.864905721691684">
  <defs>
    <style>
      .cls-1 {
        fill: #bfa01b;
        stroke: #60605f;
        stroke-miterlimit: 10;
        stroke-width: 3px;
      }

      .cls-2 {
        fill: #7a7a7a;
      }

      .cls-3 {
        fill: #8e8e8e;
      }

      .cls-4 {
        fill: #dbdddd;
      }

      .cls-5 {
        fill: #60605f;
      }

      .cls-6 {
        fill: #9b9b9b;
      }

      .cls-7 {
        fill: #bfbfbf;
      }
    </style>
  </defs>
  <g id="_Слой_2-2" data-name="Слой 2">
    <g>
      <rect class="cls-7" width="445.86490572168259" height="445.864905721691684" rx="52.128351258579642" ry="52.128351258579642"/>
      <g>
        <path class="cls-6" d="M51.808787740043044,408.677091731320616c-8.15869140625,0-14.79638671875-6.6376953125-14.79638671875-14.7958984375V51.811857356320616c0-8.16015625,6.63916015625-14.798828125,14.79931640625-14.798828125h153.224609375v371.6640625H51.808787740043044Z"/>
        <path class="cls-5" d="M203.536570943168044,38.512540950070616v368.6650390625H51.808543599418044c-7.34326171875,0-13.2958984375-5.952880859375-13.2958984375-13.296142578125V51.811613215695616c0-7.3447265625,5.9541015625-13.299072265625,13.299072265625-13.299072265625h151.724853515625M206.536570943168044,35.512540950070616H51.811717427543044c-8.9873046875,0-16.299072265625,7.311767578125-16.299072265625,16.299072265625v342.06982421875c0,8.98583984375,7.310302734375,16.296142578125,16.2958984375,16.296142578125h154.72802734375V35.512540950070616h0Z"/>
      </g>
      <g>
        <path class="cls-6" d="M240.549022115043044,408.677091731320616V37.013029231320616h153.224609375c8.16015625,0,14.79931640625,6.638671875,14.79931640625,14.798828125v342.0693359375c0,8.158203125-6.63720703125,14.7958984375-14.7958984375,14.7958984375h-153.22802734375Z"/>
        <path class="cls-5" d="M393.773753560355544,38.512540950070616c7.344970703125,0,13.2991943359375,5.954345703125,13.2991943359375,13.299072265625v342.06982421875c0,7.34326171875-5.9527587890625,13.296142578125-13.2960205078125,13.296142578125h-151.7279052734375V38.512540950070616h151.7247314453125M393.773753560355544,35.512540950070616h-154.7247314453125v374.6650390625h154.7279052734375c8.985595703125,0,16.2960205078125-7.310302734375,16.2960205078125-16.296142578125V51.811613215695616c0-8.9873046875-7.311767578125-16.299072265625-16.2991943359375-16.299072265625h0Z"/>
      </g>
      <rect class="cls-2" x="38.512573242179315" y="142.537628517320627" width="165.02392578125" height="23.717599267320111"/>
      <rect class="cls-2" x="242.049072672469265" y="142.537628517320627" width="165.023925781253638" height="23.717599267320111"/>
      <rect class="cls-2" x="38.512573242179315" y="279.434888482161114" width="165.02392578125" height="23.717599267329206"/>
      <rect class="cls-2" x="242.049072672469265" y="279.434888482161114" width="165.023925781253638" height="23.717599267329206"/>
      <g>
        <rect class="cls-4" x="323.493846333793044" y="40.013029231320616" width="13.5908203125" height="365.6640625"/>
        <path class="cls-3" d="M335.584544575980544,41.512540950070616v362.6650390625h-10.5909423828125V41.512540950070616h10.5909423828125M338.584544575980544,38.512540950070616h-16.5909423828125v368.6650390625h16.5909423828125V38.512540950070616h0Z"/>
      </g>
      <line class="cls-1" x1="222.792775665398949" x2="222.792775665398949" y2="445.864905721691684"/>
      <g>
        <g>
          <rect class="cls-4" x="108.501170552543044" y="19.169279231320616" width="13.5908203125" height="407.3515625"/>
          <path class="cls-3" d="M120.591990865043044,20.669279231320616v404.3515625h-10.591064453125V20.669279231320616h10.591064453125M123.591990865043044,17.669279231320616h-16.591064453125v410.3515625h16.591064453125V17.669279231320616h0Z"/>
        </g>
        <g>
          <rect class="cls-4" x="98.081736958793044" y="421.224943293820616" width="34.4296875" height="13.5908203125"/>
          <path class="cls-3" d="M131.011424458793044,422.725187434445616v10.591064453125h-31.429931640625v-10.591064453125h31.429931640625M134.011424458793044,419.725187434445616h-37.429931640625v16.591064453125h37.429931640625v-16.591064453125h0Z"/>
        </g>
        <g>
          <rect class="cls-4" x="98.081736958793044" y="10.874357356320616" width="34.4296875" height="13.5908203125"/>
          <path class="cls-3" d="M131.011424458793044,12.373869075070616v10.5908203125h-31.429931640625v-10.5908203125h31.429931640625M134.011424458793044,9.373869075070616h-37.429931640625v16.5908203125h37.429931640625V9.373869075070616h0Z"/>
        </g>
      </g>
      <g>
        <g>
          <polygon class="cls-4" points="171.847850240043044 426.520841731320616 171.847850240043044 342.121427668820616 138.624705708793044 342.121427668820616 138.624705708793044 328.529630793820616 171.847850240043044 328.529630793820616 171.847850240043044 19.169279231320616 185.439158833793044 19.169279231320616 185.439158833793044 426.520841731320616 171.847850240043044 426.520841731320616"/>
          <path class="cls-3" d="M183.938914693168044,20.669279231320616v404.3515625h-10.5908203125v-84.39990234375h-33.223388671875v-10.5908203125h33.223388671875V20.669279231320616h10.5908203125M186.938914693168044,17.669279231320616h-16.5908203125v309.36083984375h-33.223388671875v16.5908203125h33.223388671875v84.39990234375h16.5908203125V17.669279231320616h0Z"/>
        </g>
        <g>
          <rect class="cls-4" x="161.428416646293044" y="10.874357356320616" width="34.43017578125" height="13.5908203125"/>
          <path class="cls-3" d="M194.358592427543044,12.373869075070616v10.5908203125h-31.429931640625v-10.5908203125h31.429931640625M197.358592427543044,9.373869075070616h-37.429931640625v16.5908203125h37.429931640625V9.373869075070616h0Z"/>
        </g>
        <g>
          <rect class="cls-4" x="161.428416646293044" y="421.224943293820616" width="34.43017578125" height="13.5908203125"/>
          <path class="cls-3" d="M194.358592427543044,422.725431575070616v10.5908203125h-31.429931640625v-10.5908203125h31.429931640625M197.358592427543044,419.725431575070616h-37.429931640625v16.5908203125h37.429931640625v-16.5908203125h0Z"/>
        </g>
      </g>
      <g>
        <g>
          <rect class="cls-4" x="323.493846333793044" y="19.169279231320616" width="13.5908203125" height="407.3515625"/>
          <path class="cls-3" d="M335.584544575980544,20.669279231320616v404.3515625h-10.5909423828125V20.669279231320616h10.5909423828125M338.584544575980544,17.669279231320616h-16.5909423828125v410.3515625h16.5909423828125V17.669279231320616h0Z"/>
        </g>
        <g>
          <rect class="cls-4" x="313.073924458793044" y="421.224943293820616" width="34.43017578125" height="13.5908203125"/>
          <path class="cls-3" d="M346.004100240043044,422.725187434445616v10.591064453125h-31.429931640625v-10.591064453125h31.429931640625M349.004100240043044,419.725187434445616h-37.429931640625v16.591064453125h37.429931640625v-16.591064453125h0Z"/>
        </g>
        <g>
          <rect class="cls-4" x="313.073924458793044" y="10.874357356320616" width="34.43017578125" height="13.5908203125"/>
          <path class="cls-3" d="M346.004100240043044,12.373869075070616v10.5908203125h-31.429931640625v-10.5908203125h31.429931640625M349.004100240043044,9.373869075070616h-37.429931640625v16.5908203125h37.429931640625V9.373869075070616h0Z"/>
        </g>
      </g>
      <g>
        <g>
          <polygon class="cls-4" points="260.146678365043044 426.520841731320616 260.146678365043044 19.169279231320616 273.737498677543044 19.169279231320616 273.737498677543044 328.529630793820616 306.960643208793044 328.529630793820616 306.960643208793044 342.121427668820616 273.737498677543044 342.121427668820616 273.737498677543044 426.520841731320616 260.146678365043044 426.520841731320616"/>
          <path class="cls-3" d="M272.237498677543044,20.669279231320616v309.36083984375h33.223388671875v10.5908203125h-33.223388671875v84.39990234375h-10.591064453125V20.669279231320616h10.591064453125M275.237498677543044,17.669279231320616h-16.591064453125v410.3515625h16.591064453125v-84.39990234375h33.223388671875v-16.5908203125h-33.223388671875V17.669279231320616h0Z"/>
        </g>
        <g>
          <rect class="cls-4" x="249.727244771293044" y="10.874357356320616" width="34.4296875" height="13.5908203125"/>
          <path class="cls-3" d="M282.656932271293044,12.373869075070616v10.5908203125h-31.429931640625v-10.5908203125h31.429931640625M285.656932271293044,9.373869075070616h-37.429931640625v16.5908203125h37.429931640625V9.373869075070616h0Z"/>
        </g>
        <g>
          <rect class="cls-4" x="249.727244771293044" y="421.224943293820616" width="34.4296875" height="13.5908203125"/>
          <path class="cls-3" d="M282.656932271293044,422.725431575070616v10.5908203125h-31.429931640625v-10.5908203125h31.429931640625M285.656932271293044,419.725431575070616h-37.429931640625v16.5908203125h37.429931640625v-16.5908203125h0Z"/>
        </g>
      </g>
    </g>
  </g>
</svg>