<?xml version="1.0" encoding="UTF-8"?>
<svg id="_Слой_2" data-name="Слой 2" xmlns="http://www.w3.org/2000/svg" viewBox="0 0 445.86490572168259 445.864905721689865">
  <defs>
    <style>
      .cls-1 {
        fill: #ffce43;
      }

      .cls-2 {
        fill: #8e8e8e;
      }

      .cls-3 {
        fill: #dbdddd;
      }

      .cls-4 {
        stroke: #998017;
        stroke-miterlimit: 10;
        stroke-width: 3px;
      }

      .cls-4, .cls-5 {
        fill: #bfa01b;
      }

      .cls-6 {
        fill: #fcfcfc;
      }

      .cls-7 {
        fill: #aa8e1a;
      }

      .cls-8 {
        fill: #998017;
      }
    </style>
  </defs>
  <g id="_Слой_2-2" data-name="Слой 2">
    <g>
      <rect class="cls-1" width="445.86490572168259" height="445.864905721689865" rx="52.128351258578789" ry="52.128351258578789"/>
      <g>
        <path class="cls-5" d="M51.808787740043044,408.677602407100494c-8.15869140625,0-14.79638671875-6.6376953125-14.79638671875-14.7958984375V51.811391469600494c0-8.16015625,6.63916015625-14.798828125,14.79931640625-14.798828125h153.224609375v371.6650390625H51.808787740043044Z"/>
        <path class="cls-8" d="M203.536570943168044,38.512563344600494v368.6650390625H51.808543599418044c-7.34326171875,0-13.2958984375-5.95263671875-13.2958984375-13.2958984375V51.811879750850494c0-7.34521484375,5.9541015625-13.29931640625,13.299072265625-13.29931640625h151.724853515625M206.536570943168044,35.512563344600494H51.811717427543044c-8.9873046875,0-16.299072265625,7.31201171875-16.299072265625,16.29931640625v342.06982421875c0,8.9853515625,7.310302734375,16.2958984375,16.2958984375,16.2958984375h154.72802734375V35.512563344600494h0Z"/>
      </g>
      <g>
        <path class="cls-5" d="M240.549022115043044,408.677602407100494V37.012563344600494h153.224609375c8.16015625,0,14.79931640625,6.638671875,14.79931640625,14.798828125v342.0703125c0,8.158203125-6.63720703125,14.7958984375-14.7958984375,14.7958984375h-153.22802734375Z"/>
        <path class="cls-8" d="M393.773753560355544,38.512563344600494c7.344970703125,0,13.2991943359375,5.9541015625,13.2991943359375,13.29931640625v342.06982421875c0,7.34326171875-5.9527587890625,13.2958984375-13.2960205078125,13.2958984375h-151.7279052734375V38.512563344600494h151.7247314453125M393.773753560355544,35.512563344600494h-154.7247314453125v374.6650390625h154.7279052734375c8.985595703125,0,16.2960205078125-7.310546875,16.2960205078125-16.2958984375V51.811879750850494c0-8.9873046875-7.311767578125-16.29931640625-16.2991943359375-16.29931640625h0Z"/>
      </g>
      <rect class="cls-7" x="38.512573242179315" y="142.537628517320627" width="165.02392578125" height="23.717599267320111"/>
      <rect class="cls-7" x="242.049072672469265" y="142.537628517320627" width="165.023925781253638" height="23.717599267320111"/>
      <rect class="cls-7" x="38.512573242179315" y="279.434888482159295" width="165.02392578125" height="23.717599267331025"/>
      <rect class="cls-7" x="242.049072672469265" y="279.434888482159295" width="165.023925781253638" height="23.717599267331025"/>
      <g>
        <rect class="cls-3" x="323.493846333793044" y="40.012563344600494" width="13.5908203125" height="365.6650390625"/>
        <path class="cls-2" d="M335.584544575980544,41.512563344600494v362.6650390625h-10.5909423828125V41.512563344600494h10.5909423828125M338.584544575980544,38.512563344600494h-16.5909423828125v368.6650390625h16.5909423828125V38.512563344600494h0Z"/>
      </g>
      <line class="cls-4" x1="222.792775665398949" x2="222.792775665398949" y2="445.864905721689865"/>
      <path class="cls-6" d="M20.441692258639705,57.304363161900255c-.673105224040228-.037922368479485-1.147724190280314-.196241695080971-1.42385689872026-.474957979778992,5.601612856219617-.044193572681252,11.394083512549514-.134859541081823,16.897488797800179-1.257584294169646,4.76845771447006-.972791432330268,9.555993979659434-2.842726980441512,12.054268142769615-7.291659341981358,1.353481954510244-3.361294991029354,2.307756830670769-6.418471489760122,2.856190037929991-10.047036941950864.589203139999881-5.357177322228381.902790370660114-10.715727970999069.940761691979787-16.075651946299331.646416647710794-.42409426481936.446575066760488-.229767988779713.47469108812038.352688061480876.080167533999884,1.66076361335945.180338908059639,3.318563269589504.23723736123975,5.109328706059387.27442488368979,6.40772161735913.808300052290178,12.894408102180023,2.847713797430515,18.9983191914489,2.223408425379603,5.023282480342459,6.445733172339715,7.42615163478149,11.625403796289902,8.670745979721687,5.913366784569916,1.420890128729297,12.452125907029767,1.4732303417004,18.512900559880109,1.54085058569035-.18551201839.273729408458166-.660130984630086.432048735070566-1.42385689872026.474957979778992-2.803231531250276.064575578469885-4.932484014930196.495486199961306-7.731515329230206.715271509110607-1.594895637199443.125234265458857-1.726608470889914.217921457489865-3.453216941789833.402316536899889l-2.494416610019471.308618391869459c-11.69583980436073,1.187370395980906-15.07343690315065,7.051222657859398-16.894603351660407,18.039957919811059-.1022853006898.61717922124808-.274200779629609,1.940470153720526-.374779913850034,2.666875012018863-.148634856429453,2.608103942990056-.406308061320487,4.285221363519668-.613629108330315,6.83939739725065-.068073912540058,2.145671927000876-.167338604109318,3.605724892260696-.237237221689611,5.346807803898628-.02349493255042.585227962492354.167358114270428.774939086149971-.474691227670519.352687953520217-.148292211719308-4.594003078569585-.534667883449401-6.771364328398704-.702788315889848-11.359882192347868-.272871187079545-2.202595972701602-.608163773879824-5.821214830211829-1.20811558306923-8.342423940772278-2.323329574220224-8.477672872879339-8.73047329936071-13.136539877328687-17.364059393490606-13.695521601568544"/>
      <path class="cls-6" d="M383.417478102091081,274.531200735000311c-.5062700089793-.028522966618766-.863250373588926-.147601416811085-1.070941093827969-.357235350580595,4.213202467779411-.033239796159251,8.569956904450009-.101433384610573,12.709293435589643-.945880657529415,3.586552360149653-.731676281189721,7.187454479738335-2.138131398340192,9.066508805589365-5.484355652999511,1.018009215779784-2.5281676393206,1.735758436660944-4.82759530409021,2.148257515321347-7.556788004489135.44316381498902-4.029352490741076.679025615518185-8.059737916632002.70758540155839-12.091156277650953.486196437581384-.318978667221018.335887399151034-.172817915508858.357034610429764.265271136930096.060297285930574,1.249128337460206.135640279320796,2.496027361370579.178435936490132,3.842935394799497.206406195291493,4.819509884750005.607955576801032,9.698412480680418,2.141882187650481,14.289414023369318,1.672316546180809,3.778216504029842,4.848099932190962,5.585512815130642,8.743942364590112,6.521623199780151,4.447685366549194,1.068709664599737,9.365753926109392,1.108076882599562,13.924310788130242,1.158936837789952-.139531187489411.205883099901257-.496511552100856.324961550089938-1.070941093830697.357235350580595-2.108425253300084.048569937540378-3.709923259149946.372675465800057-5.815189357239433.537984999080436-1.199586334680134.094193820579676-1.298652951780241.163907654108698-2.597305903560482.30259874604053l-1.876152902168542.232124533340539c-8.796920171280362.89306990877958-11.337349293580701,5.30351337473985-12.707123173360742,13.568591257087974-.076932964189837.464205771590059-.206237637459708,1.459507083080098-.281887323970295,2.005865930110303-.111794363510853,1.961661801860828-.305600935050279,3.223090507541201-.461535586240643,5.144190919989342-.051201177888288,1.613847741700738-.12586221823949,2.712013379750715-.178435831528986,4.021553151280386-.017671501100267.440173921149835.125876892629094.58286342772044-.35703471539091.265271055730409-.111536646400054-3.455337882949607-.402145614809342-5.093020462320055-.528595878149645-8.544232690670469-.205237596439474-1.656662648059864-.457424884349166-4.378374107200216-.908673213709335-6.27467874642025-1.747471334920192-6.376405007969879-6.566546563270094-9.88052970634817-13.060220291050427-10.300962756698937"/>
      <path class="cls-6" d="M344.283109222273197,236.979977943581616c-.720787416943494-.040608756331494-1.22902798096402-.210143287331448-1.5247216920543-.508603592999862,5.998426274492886-.047324207222118,12.201230550863329-.14441287452064,18.094492314852687-1.346670479761087,5.106251141851317-1.041703137479999,10.232932342480126-3.044103305321187,12.908182090281116-7.808194194109092,1.449361447570482-3.599406226032443,2.471236332030458-6.873150468351014,3.058520074169792-10.75876036425143.630941781710135-5.736675138310602.966743261040392-11.474820888439353,1.007404437979858-17.214437250358969.692208244920039-.45413673638177.478210058920013-.246044554720356.508317794950926.377672179238289.085846532889263,1.778410673810868.193113960598566,3.553647426340831.254043051079861,5.471269140180084.293864905508599,6.861639084270791.865559330110045,13.807836839030642,3.049443384108599,20.344143719710701,2.38091275853003,5.379127474119741,6.902343344991095,7.952213804810526,12.448937363780715,9.284974138559846,6.332264581960771,1.52154475863972,13.334223755049607,1.577592707100848,19.824338451409858,1.650003110791658-.198653529600051.293120163438289-.706894093620576.462654694429148-1.524721692059757.508603592999862-3.001810032599678.069150056689978-5.281896923819659.530586014549044-8.279209199730758.765940725239489-1.707876667089295.134105752709729-1.848919924199436.233358825378673-3.697839848410695.430816293019234l-2.671118928979013.33048065228104c-12.524362997850403,1.27148268964811-16.141226158879363,7.550725182889437-18.091402466199725,19.317892963048507-.109531103069457.660899664409953-.293624926120174,2.077931383999385-.401328999369071,2.85579413528103-.159164021320976,2.792859774468525-.435090573580965,4.588782745029675-.657098064550155,7.323894403700251-.07289620973097,2.297669473718997-.179192726340261,3.861151330429493-.254042901649882,5.725571052258601-.025159293270917.626685006071057.179213618599533.829835101931167-.508317944380906.377672063650607-.158797103960751-4.919438290178732-.572543294680145-7.251041930989231-.752573233390649-12.164606438678675-.292201146368825-2.35862596968218-.651245570528772-6.233584662732028-1.293697447888917-8.933394049830895-2.487912235270414-9.078223899539807-9.348932489940125-14.067121020099876-18.594114368699593-14.665700527059016"/>
      <path class="cls-6" d="M354.439176340012637,298.554656279429764c-.288892368889719-.016276033038594-.492595731440815-.084225654700276-.611110087620546-.203848864948668,2.404175676991144-.018967592961417,4.890266276090188-.057880834821844,7.252291904600497-.539746970989654,2.046590928039222-.417515733490291,4.101370245509315-1.220079865950538,5.17361321045064-3.129532597991783.580905620900012-1.442645871478817.990474169338995-2.754766070989717,1.225858122348654-4.31212267995943.252882142051021-2.299265541199929.387471734709834-4.599120505190513.40376877799099-6.899564891949922.277437806129456-.182018490459086.191667103919826-.098614921118497.203734316779446.1513714140292.034407382350764.712788903299952.07740028229091,1.424305695551084.101820727029917,2.192890532820456.117781368950091,2.750152295920998.346917106789988,5.534195797561551,1.222220175259281,8.153954597750271.95427238431057,2.15596005434054,2.766466607210532,3.187255812250442,4.989547432071049,3.721427581820535,2.537978428269525.609836769310277,5.34437116610934.632300847099032,7.945616089340547.661323014470327-.079620547490777.117482875528367-.283323910030958.185432497179136-.611110087631459.203848864948668-1.203128676928827.027715416799765-2.116989945619935.212659443051962-3.318315916849315.306989863231138-.684518797839701.053749729358969-.741049086389467.093530467220262-1.482098172778933.17267163177894l-1.070587328332294.132456999479473c-5.019778107008278.509611624171157-6.469420736738357,3.026338742482039-7.2510534899493,7.742632195051556-.04390018346021.264889293519445-.117685184959555.832837124809885-.160853092898833,1.144605348859841-.063793110261031,1.119381189630076-.174384768010896,1.839189040219935-.263365608230743,2.93542472316949-.029216878950137.920908386578958-.071820636680059,1.547553589709423-.101820667139691,2.294815011598985-.010083871689858.251176021811261.071829010329566.332598797871469-.203734376669672.151371367721367-.063646049389718-1.971716136949908-.229475965879828-2.90622537406125-.301632158179928-4.875587292690398-.117114532509731-.945339815469197-.261019922359992-2.498427410919248-.51851532307046-3.580513905610132-.997157889220034-3.638561864529038-3.747062157570326-5.638117175099978-7.452540959029648-5.878028482749869"/>
      <path class="cls-6" d="M28.725601163579995,350.96382581143007c-.497758206300205-.028043416459695-.848736741120774-.145119827710005-1.052935604460799-.351229233778213,4.142366851649967-.032680943011655,8.425872165540568-.099728008141028,12.49561497177001-.929977780870104,3.526252469950123-.71937477406027,7.066613440080801-2.102183480781605,8.91407565235022-5.392148427081338,1.000893658059795-2.485662131040954,1.70657552431021-4.74643004076097,2.112139349649624-7.429737444179409.43571300243093-3.961607902521791.667609312070454-7.924231373670409.695688928930394-11.88787041345131.478022127299482-.313615751329053.330240200600201-.169912367158759.351031868610335.26081119355149.059283521360157,1.228127026439324.133359790119357,2.454062220258493.175435933620065,3.778324994858849.202935934819834,4.738480559739401.597734157779996,9.535355274480025,2.105871208929784,14.049169351010278,1.644200267919587,3.714694208110814,4.766589929189649,5.491604856821141,8.596932447650033,6.411976630201025,4.37290744271013,1.050741691749863,9.208289632630112,1.089447037647915,13.690204513529352,1.139451895960519-.137185281329948.202421634097846-.488163816149608.319498045369983-1.05293560445898.351229233778213-2.072976778410521.047753342210854-3.647549162050382.366409757840302-5.717419899410743.528939979480128-1.179417962099251.092610161271296-1.276818994670066.161151911961497-2.553637989330127.29751122207017l-1.844609569569911.228221876281168c-8.649019550510275.878054927248741-11.146737015000326,5.214346608969208-12.493481197660003,13.340465614159257-.075639507739652.456401185379946-.202770210909875,1.434968722000121-.277148016419233,1.972141761829334-.109914790260518,1.928680827550124-.300462935940232,3.168901418899623-.453775893260172,5.057702806459929-.050340344119832,1.586714486180426-.123746125350408,2.666416914789806-.175435830420611,3.953939691580672-.017374394169565.432773377009653.123760553030479.573063877298409-.351031971809789.260811113730597-.109661406099804-3.397244071951718-.395384431929415-5.007392666091619-.519708715720299-8.400580447130778-.201786983349848-1.628809555229964-.449734303670084-4.304761497800428-.893395897359369-6.16918399783026-1.718091496270063-6.269199958878744-6.45614470738019-9.714410604619843-12.840641773710558-10.127775009579636"/>
      <path class="cls-6" d="M63.96831485652001,376.879268078700989c-.302814562520325-.017060401569324-.516334721770363-.088284626119275-.640560477741019-.213672673640758,2.520036817270011-.0198816721404,5.12593617012044-.060670206488794,7.6017916594501-.565758256319896,2.145219477049977-.437636496470077,4.299021955370335-1.278877501190436,5.422938054590304-3.280349869310157.608900408579757-1.512169324889328,1.038206732219805-2.887522733180958,1.284934221170261-4.519930892780394.265068944199811-2.41007089121922.406144628469519-4.820759610469395.42322705280003-7.232066157750523.290807985719766-.190790257867775.200903853729869-.103367334728318.213552605219775.15866624894079.036065530130145.747139361090376.081130327919709,1.492945306019465.106727633649825,2.298569497990684.123457444889937,2.882686612769248.36363560701011,5.800897703660667,1.281120955480219,8.54690694583951,1.000260324230112,2.2598592796312,2.899787137290332,3.340854859241517,5.230001846659434,3.900769236101041,2.660287740980493.639225796137907,5.601925114150617.66277245441961,8.328528265490604.693193247288946-.083457591299521.123144566579867-.296977750540464.194368791129818-.640560477730105.213672673640758-1.261109406779724.029051067869659-2.219011137920461.222907847870374-3.478230963670285.321784204579671-.717506873219463.056340016330068-.776761448420075.098037852720154-1.553522896829236.180992958859861l-1.122180674790798.138840317949871c-5.261689387039951.534170638060459-6.781192655359519,3.172182933860313-7.600493563579221,8.11576224683995-.046015804780836.277654739858917-.123356625630549.872972901861431-.168604865340967,1.199765744238903-.066867404109871,1.173325991690945-.182788653909483,1.927822554571321-.276057625689646,3.076887619939953-.030624887919657.965288461120508-.075281790110239,1.622132716900524-.106727570870135,2.405405883371714-.010569829889391.263280603259773.075290567279808.348627275459876-.213552667999465.15866620037923-.066713256140247-2.066736347878759-.240534786300486-3.046281106660899-.316168302990263-5.110549782610178-.122758472520218-.9908972803496-.273598897410011-2.618830695708311-.543503420720299-3.753064700398681-1.045212551449367-3.813910084980307-3.927639183809333-5.909827221590604-7.811691041859376-6.161300245781604"/>
      <path class="cls-6" d="M60.751422793119673,102.675417337180988c-.37090710629036-.020896697071294-.632440579920512-.108136791481229-.784600420880452-.261720283251634,3.086706120920098-.024352373999136,6.27858229820049-.074312841959909,9.311172235400591-.692977761587827,2.627605297329865-.536045839951839,5.265723616679679-1.566452912022214,6.642369655769471-4.017987336910664.745821094880739-1.852204015040115,1.27166359362036-3.536826935900535,1.573871579280421-5.536307349650087.32467380117032-2.952012653458951.497472537739668-5.904782063149469.518396209719867-8.858308229080649.356200664769858-.233692401930966.246080196439834-.126611080690054.261573215580029.194344812129202.044175423089655.915145216622477.099373738529721,1.828657177820787.130726994860197,2.815438445240943.151218763229735,3.53090333892942.445404704499197,7.105319385011171,1.569200841749989,10.468811329990785,1.225184348169932,2.76802363482966,3.55184918121995,4.092097810809719,6.406048753669893,4.777917606139454,3.258494636759679.782965615449939,6.861604727469967.811807104479158,10.201326821559633.849068483728843-.102224323130031.15083552939177-.363757796750178.238075623801706-.784600420869538.261720283251634-1.544689386430036.035583650349508-2.717990155880216.273032129400235-4.260365059730248.394142366119922-.878849404970424.069008941478387-.951428289009527.120083182109738-1.902856578029969.221692028510006l-1.374520377599765.170060713520797c-6.444861728230535.654287178198501-8.306048837440358,3.885497390958335-9.309582242570286,9.940717068719096-.056363171080193.340089707879088-.151095273200553,1.069274377699912-.206518280329874,1.469551651389338-.081903575420256,1.437166511059331-.223891513400304,2.361323310229636-.338133457849835,3.768773449959554-.037511368230298,1.182348520071173-.092210066430198,1.9868943786405-.130726917960601,2.946298646360447-.012946619829563.322483324060158.092220817280577.427021517180037-.261573292479625.194344752640973-.081714764900426-2.531474021170652-.294622757920479-3.731284588211565-.387263642100152-6.25973604319006-.150362616090206-1.213715878871881-.335121846429502-3.207715332850057-.665718581560213-4.596999418241467-1.280244779799432-4.671526829779395-4.810829677689981-7.238743391919343-9.568270744440269-7.546764019898546"/>
      <g>
        <g>
          <rect class="cls-3" x="108.501170552543044" y="19.169789907100494" width="13.5908203125" height="407.3505859375"/>
          <path class="cls-2" d="M120.591990865043044,20.669301625850494v404.3515625h-10.591064453125V20.669301625850494h10.591064453125M123.591990865043044,17.669301625850494h-16.591064453125v410.3515625h16.591064453125V17.669301625850494h0Z"/>
        </g>
        <g>
          <rect class="cls-3" x="98.081736958793044" y="421.225453969600494" width="34.4296875" height="13.5908203125"/>
          <path class="cls-2" d="M131.011424458793044,422.725453969600494v10.5908203125h-31.429931640625v-10.5908203125h31.429931640625M134.011424458793044,419.725453969600494h-37.429931640625v16.5908203125h37.429931640625v-16.5908203125h0Z"/>
        </g>
        <g>
          <rect class="cls-3" x="98.081736958793044" y="10.873891469600494" width="34.4296875" height="13.5908203125"/>
          <path class="cls-2" d="M131.011424458793044,12.373891469600494v10.5908203125h-31.429931640625v-10.5908203125h31.429931640625M134.011424458793044,9.373891469600494h-37.429931640625v16.5908203125h37.429931640625V9.373891469600494h0Z"/>
        </g>
      </g>
      <g>
        <g>
          <polygon class="cls-3" points="171.847850240043044 426.520375844600494 171.847850240043044 342.120961782100494 138.624705708793044 342.120961782100494 138.624705708793044 328.530141469600494 171.847850240043044 328.530141469600494 171.847850240043044 19.169789907100494 185.439158833793044 19.169789907100494 185.439158833793044 426.520375844600494 171.847850240043044 426.520375844600494"/>
          <path class="cls-2" d="M183.938914693168044,20.669301625850494v404.3515625h-10.5908203125v-84.39990234375h-33.223388671875v-10.5908203125h33.223388671875V20.669301625850494h10.5908203125M186.938914693168044,17.669301625850494h-16.5908203125v309.36083984375h-33.223388671875v16.5908203125h33.223388671875v84.39990234375h16.5908203125V17.669301625850494h0Z"/>
        </g>
        <g>
          <rect class="cls-3" x="161.428416646293044" y="10.873891469600494" width="34.43017578125" height="13.5908203125"/>
          <path class="cls-2" d="M194.358592427543044,12.373891469600494v10.5908203125h-31.429931640625v-10.5908203125h31.429931640625M197.358592427543044,9.373891469600494h-37.429931640625v16.5908203125h37.429931640625V9.373891469600494h0Z"/>
        </g>
        <g>
          <rect class="cls-3" x="161.428416646293044" y="421.225453969600494" width="34.43017578125" height="13.5908203125"/>
          <path class="cls-2" d="M194.358592427543044,422.725453969600494v10.5908203125h-31.429931640625v-10.5908203125h31.429931640625M197.358592427543044,419.725453969600494h-37.429931640625v16.5908203125h37.429931640625v-16.5908203125h0Z"/>
        </g>
      </g>
      <g>
        <g>
          <rect class="cls-3" x="323.493846333793044" y="19.169789907100494" width="13.5908203125" height="407.3505859375"/>
          <path class="cls-2" d="M335.584544575980544,20.669301625850494v404.3515625h-10.5909423828125V20.669301625850494h10.5909423828125M338.584544575980544,17.669301625850494h-16.5909423828125v410.3515625h16.5909423828125V17.669301625850494h0Z"/>
        </g>
        <g>
          <rect class="cls-3" x="313.073924458793044" y="421.225453969600494" width="34.43017578125" height="13.5908203125"/>
          <path class="cls-2" d="M346.004100240043044,422.725453969600494v10.5908203125h-31.429931640625v-10.5908203125h31.429931640625M349.004100240043044,419.725453969600494h-37.429931640625v16.5908203125h37.429931640625v-16.5908203125h0Z"/>
        </g>
        <g>
          <rect class="cls-3" x="313.073924458793044" y="10.873891469600494" width="34.43017578125" height="13.5908203125"/>
          <path class="cls-2" d="M346.004100240043044,12.373891469600494v10.5908203125h-31.429931640625v-10.5908203125h31.429931640625M349.004100240043044,9.373891469600494h-37.429931640625v16.5908203125h37.429931640625V9.373891469600494h0Z"/>
        </g>
      </g>
      <g>
        <g>
          <polygon class="cls-3" points="260.146678365043044 426.520375844600494 260.146678365043044 19.169789907100494 273.737498677543044 19.169789907100494 273.737498677543044 328.530141469600494 306.960643208793044 328.530141469600494 306.960643208793044 342.120961782100494 273.737498677543044 342.120961782100494 273.737498677543044 426.520375844600494 260.146678365043044 426.520375844600494"/>
          <path class="cls-2" d="M272.237498677543044,20.669301625850494v309.36083984375h33.223388671875v10.5908203125h-33.223388671875v84.39990234375h-10.591064453125V20.669301625850494h10.591064453125M275.237498677543044,17.669301625850494h-16.591064453125v410.3515625h16.591064453125v-84.39990234375h33.223388671875v-16.5908203125h-33.223388671875V17.669301625850494h0Z"/>
        </g>
        <g>
          <rect class="cls-3" x="249.727244771293044" y="10.873891469600494" width="34.4296875" height="13.5908203125"/>
          <path class="cls-2" d="M282.656932271293044,12.373891469600494v10.5908203125h-31.429931640625v-10.5908203125h31.429931640625M285.656932271293044,9.373891469600494h-37.429931640625v16.5908203125h37.429931640625V9.373891469600494h0Z"/>
        </g>
        <g>
          <rect class="cls-3" x="249.727244771293044" y="421.225453969600494" width="34.4296875" height="13.5908203125"/>
          <path class="cls-2" d="M282.656932271293044,422.725453969600494v10.5908203125h-31.429931640625v-10.5908203125h31.429931640625M285.656932271293044,419.725453969600494h-37.429931640625v16.5908203125h37.429931640625v-16.5908203125h0Z"/>
        </g>
      </g>
    </g>
  </g>
</svg>