<?xml version="1.0" encoding="UTF-8"?>
<svg id="_Слой_2" data-name="Слой 2" xmlns="http://www.w3.org/2000/svg" viewBox="0 0 445.864905721689865 445.864905721678952">
  <defs>
    <style>
      .cls-1 {
        fill: #346621;
      }

      .cls-2 {
        stroke: #346621;
        stroke-width: 3px;
      }

      .cls-2, .cls-3 {
        fill: #408440;
      }

      .cls-2, .cls-4 {
        stroke-miterlimit: 10;
      }

      .cls-5 {
        fill: #50a550;
      }

      .cls-6 {
        fill: #8e8e8e;
      }

      .cls-7 {
        fill: #dbdddd;
      }

      .cls-8 {
        fill: #326632;
      }

      .cls-4 {
        fill: #67686d;
        stroke: #383838;
        stroke-width: 4px;
      }
    </style>
  </defs>
  <g id="_Слой_2-2" data-name="Слой 2">
    <g>
      <g>
        <rect class="cls-5" width="445.864905721689865" height="445.864905721678952" rx="52.128351258580551" ry="52.128351258580551"/>
        <g>
          <path class="cls-3" d="M51.808779438963029,408.677767924749787c-8.15869140625,0-14.79638671875-6.6376953125-14.79638671875-14.7958984375V51.811556987249787c0-8.16015625,6.63916015625-14.798828125,14.79931640625-14.798828125h153.224609375v371.6650390625H51.808779438963029Z"/>
          <path class="cls-1" d="M203.536562642088029,38.512484721624787v368.664794921875H51.808535298338029c-7.34326171875,0-13.2958984375-5.95263671875-13.2958984375-13.2958984375V51.811556987249787c0-7.3447265625,5.9541015625-13.299072265625,13.299072265625-13.299072265625h151.724853515625M206.536562642088029,35.512484721624787H51.811709126463029c-8.9873046875,0-16.299072265625,7.311767578125-16.299072265625,16.299072265625v342.06982421875c0,8.9853515625,7.310302734375,16.2958984375,16.2958984375,16.2958984375h154.72802734375V35.512484721624787h0Z"/>
        </g>
        <g>
          <path class="cls-3" d="M240.549013813963029,408.677767924749787V37.012728862249787h153.224609375c8.16015625,0,14.79931640625,6.638671875,14.79931640625,14.798828125v342.0703125c0,8.158203125-6.63720703125,14.7958984375-14.7958984375,14.7958984375h-153.22802734375Z"/>
          <path class="cls-1" d="M393.773867329588029,38.512484721624787c7.3447265625,0,13.299072265625,5.954345703125,13.299072265625,13.299072265625v342.06982421875c0,7.34326171875-5.952880859375,13.2958984375-13.2958984375,13.2958984375h-151.72802734375V38.512484721624787h151.724853515625M393.773867329588029,35.512484721624787h-154.724853515625v374.664794921875h154.72802734375c8.985595703125,0,16.2958984375-7.310546875,16.2958984375-16.2958984375V51.811556987249787c0-8.9873046875-7.311767578125-16.299072265625-16.299072265625-16.299072265625h0Z"/>
        </g>
        <rect class="cls-8" x="38.512573242189319" y="142.537628517309713" width="165.02392578125" height="23.717599267320111"/>
        <rect class="cls-8" x="242.049072672479269" y="142.537628517309713" width="165.02392578125" height="23.717599267320111"/>
        <rect class="cls-8" x="38.512573242189319" y="279.4348884821502" width="165.02392578125" height="23.717599267329206"/>
        <rect class="cls-8" x="242.049072672479269" y="279.4348884821502" width="165.02392578125" height="23.717599267329206"/>
        <g>
          <rect class="cls-7" x="323.493838032713029" y="40.012728862249787" width="13.5908203125" height="365.6650390625"/>
          <path class="cls-6" d="M335.584658345213029,41.512484721624787v362.664794921875h-10.591064453125V41.512484721624787h10.591064453125M338.584658345213029,38.512484721624787h-16.591064453125v368.664794921875h16.591064453125V38.512484721624787h0Z"/>
        </g>
        <line class="cls-2" x1="222.792775665409863" x2="222.792775665409863" y2="445.864905721678952"/>
        <g>
          <g>
            <rect class="cls-7" x="108.501162251463029" y="19.168978862249787" width="13.5908203125" height="407.3515625"/>
            <path class="cls-6" d="M120.591982563963029,20.669467143499787v404.35107421875h-10.591064453125V20.669467143499787h10.591064453125M123.591982563963029,17.669467143499787h-16.591064453125v410.35107421875h16.591064453125V17.669467143499787h0Z"/>
          </g>
          <g>
            <rect class="cls-7" x="98.081728657713029" y="421.225619487249787" width="34.4296875" height="13.5908203125"/>
            <path class="cls-6" d="M131.011416157713029,422.725131205999787v10.59130859375h-31.429931640625v-10.59130859375h31.429931640625M134.011416157713029,419.725131205999787h-37.429931640625v16.59130859375h37.429931640625v-16.59130859375h0Z"/>
          </g>
          <g>
            <rect class="cls-7" x="98.081728657713029" y="10.874056987249787" width="34.4296875" height="13.5908203125"/>
            <path class="cls-6" d="M131.011416157713029,12.373812846624787v10.591064453125h-31.429931640625v-10.591064453125h31.429931640625M134.011416157713029,9.373812846624787h-37.429931640625v16.591064453125h37.429931640625V9.373812846624787h0Z"/>
          </g>
        </g>
        <g>
          <g>
            <polygon class="cls-7" points="171.847841938963029 426.520541362249787 171.847841938963029 342.121127299749787 138.624697407713029 342.121127299749787 138.624697407713029 328.530306987249787 171.847841938963029 328.530306987249787 171.847841938963029 19.168978862249787 185.439150532713029 19.168978862249787 185.439150532713029 426.520541362249787 171.847841938963029 426.520541362249787"/>
            <path class="cls-6" d="M183.938906392088029,20.669223002874787v404.351318359375h-10.5908203125v-84.399658203125h-33.223388671875v-10.5908203125h33.223388671875V20.669223002874787h10.5908203125M186.938906392088029,17.669223002874787h-16.5908203125v309.36083984375h-33.223388671875v16.5908203125h33.223388671875v84.399658203125h16.5908203125V17.669223002874787h0Z"/>
          </g>
          <g>
            <rect class="cls-7" x="161.428408345213029" y="10.874056987249787" width="34.43017578125" height="13.5908203125"/>
            <path class="cls-6" d="M194.358584126463029,12.373812846624787v10.591064453125h-31.429931640625v-10.591064453125h31.429931640625M197.358584126463029,9.373812846624787h-37.429931640625v16.591064453125h37.429931640625V9.373812846624787h0Z"/>
          </g>
          <g>
            <rect class="cls-7" x="161.428408345213029" y="421.225619487249787" width="34.43017578125" height="13.5908203125"/>
            <path class="cls-6" d="M194.358584126463029,422.725131205999787v10.59130859375h-31.429931640625v-10.59130859375h31.429931640625M197.358584126463029,419.725131205999787h-37.429931640625v16.59130859375h37.429931640625v-16.59130859375h0Z"/>
          </g>
        </g>
        <g>
          <g>
            <rect class="cls-7" x="323.493838032713029" y="19.168978862249787" width="13.5908203125" height="407.3515625"/>
            <path class="cls-6" d="M335.584658345213029,20.669467143499787v404.35107421875h-10.591064453125V20.669467143499787h10.591064453125M338.584658345213029,17.669467143499787h-16.591064453125v410.35107421875h16.591064453125V17.669467143499787h0Z"/>
          </g>
          <g>
            <rect class="cls-7" x="313.074404438963029" y="421.225619487249787" width="34.4296875" height="13.5908203125"/>
            <path class="cls-6" d="M346.004091938963029,422.725131205999787v10.59130859375h-31.429931640625v-10.59130859375h31.429931640625M349.004091938963029,419.725131205999787h-37.429931640625v16.59130859375h37.429931640625v-16.59130859375h0Z"/>
          </g>
          <g>
            <rect class="cls-7" x="313.074404438963029" y="10.874056987249787" width="34.4296875" height="13.5908203125"/>
            <path class="cls-6" d="M346.004091938963029,12.373812846624787v10.591064453125h-31.429931640625v-10.591064453125h31.429931640625M349.004091938963029,9.373812846624787h-37.429931640625v16.591064453125h37.429931640625V9.373812846624787h0Z"/>
          </g>
        </g>
        <g>
          <g>
            <polygon class="cls-7" points="260.146670063963029 426.520541362249787 260.146670063963029 19.168978862249787 273.737490376463029 19.168978862249787 273.737490376463029 328.530306987249787 306.960634907713029 328.530306987249787 306.960634907713029 342.121127299749787 273.737490376463029 342.121127299749787 273.737490376463029 426.520541362249787 260.146670063963029 426.520541362249787"/>
            <path class="cls-6" d="M272.237490376463029,20.669223002874787v309.36083984375h33.223388671875v10.5908203125h-33.223388671875v84.399658203125h-10.591064453125V20.669223002874787h10.591064453125M275.237490376463029,17.669223002874787h-16.591064453125v410.351318359375h16.591064453125v-84.399658203125h33.223388671875v-16.5908203125h-33.223388671875V17.669223002874787h0Z"/>
          </g>
          <g>
            <rect class="cls-7" x="249.727236470213029" y="10.874056987249787" width="34.4296875" height="13.5908203125"/>
            <path class="cls-6" d="M282.656923970213029,12.373812846624787v10.591064453125h-31.429931640625v-10.591064453125h31.429931640625M285.656923970213029,9.373812846624787h-37.429931640625v16.591064453125h37.429931640625V9.373812846624787h0Z"/>
          </g>
          <g>
            <rect class="cls-7" x="249.727236470213029" y="421.225619487249787" width="34.4296875" height="13.5908203125"/>
            <path class="cls-6" d="M282.656923970213029,422.725131205999787v10.59130859375h-31.429931640625v-10.59130859375h31.429931640625M285.656923970213029,419.725131205999787h-37.429931640625v16.59130859375h37.429931640625v-16.59130859375h0Z"/>
          </g>
        </g>
      </g>
      <path class="cls-4" d="M285.59132737256914,204.338633132359973h-9.802001953129547v-23.022216796869543c0-29.192138671880457-23.664794921870453-52.85693359375-52.856872558590112-52.85693359375s-52.856872558600116,23.664794921869543-52.856872558600116,52.85693359375v23.022216796869543h-9.802001953119543c-23.448791503909888,0-42.457763671880457,19.009033203130457-42.457763671880457,42.457763671880457s19.008972167970569,42.457763671869543,42.457763671880457,42.457763671869543h125.317749023439319c23.448791503900793,0,42.457763671870453-19.009033203119543,42.457763671870453-42.457763671869543s-19.008972167969659-42.457763671880457-42.457763671870453-42.457763671880457ZM192.20070237256914,204.338633132359973h-7.332885742189319v-23.022216796869543c0-21.0224609375,17.042114257809772-38.064575195310681,38.064636230469659-38.064575195310681,21.022521972649884,0,38.064636230469659,17.042114257810681,38.064636230469659,38.064575195310681v23.022216796869543h-68.79638671875Z"/>
    </g>
  </g>
</svg>