<?xml version="1.0" encoding="UTF-8"?>
<svg id="_Слой_2" data-name="Слой 2" xmlns="http://www.w3.org/2000/svg" viewBox="0 0 445.864905721689865 445.864905721689865">
  <defs>
    <style>
      .cls-1 {
        fill: #ffce43;
      }

      .cls-2 {
        fill: #8e8e8e;
      }

      .cls-3 {
        fill: #dbdddd;
      }

      .cls-4 {
        stroke: #998017;
        stroke-width: 3px;
      }

      .cls-4, .cls-5 {
        fill: #bfa01b;
      }

      .cls-4, .cls-6 {
        stroke-miterlimit: 10;
      }

      .cls-7 {
        fill: #fcfcfc;
      }

      .cls-8 {
        fill: #aa8e1a;
      }

      .cls-6 {
        fill: #67686d;
        stroke: #383838;
        stroke-width: 4px;
      }

      .cls-9 {
        fill: #998017;
      }
    </style>
  </defs>
  <g id="_Слой_2-2" data-name="Слой 2">
    <g>
      <g>
        <rect class="cls-1" width="445.864905721689865" height="445.864905721689865" rx="52.128351258579642" ry="52.128351258579642"/>
        <g>
          <path class="cls-5" d="M51.808779438963029,408.677602407100494c-8.15869140625,0-14.79638671875-6.6376953125-14.79638671875-14.7958984375V51.811391469600494c0-8.16015625,6.63916015625-14.798828125,14.79931640625-14.798828125h153.224609375v371.6650390625H51.808779438963029Z"/>
          <path class="cls-9" d="M203.536562642088029,38.512563344600494v368.6650390625H51.808535298338029c-7.34326171875,0-13.2958984375-5.95263671875-13.2958984375-13.2958984375V51.811879750850494c0-7.34521484375,5.9541015625-13.29931640625,13.299072265625-13.29931640625h151.724853515625M206.536562642088029,35.512563344600494H51.811709126463029c-8.9873046875,0-16.299072265625,7.31201171875-16.299072265625,16.29931640625v342.06982421875c0,8.9853515625,7.310302734375,16.2958984375,16.2958984375,16.2958984375h154.72802734375V35.512563344600494h0Z"/>
        </g>
        <g>
          <path class="cls-5" d="M240.549013813963029,408.677602407100494V37.012563344600494h153.224609375c8.16015625,0,14.79931640625,6.638671875,14.79931640625,14.798828125v342.0703125c0,8.158203125-6.63720703125,14.7958984375-14.7958984375,14.7958984375h-153.22802734375Z"/>
          <path class="cls-9" d="M393.773867329588029,38.512563344600494c7.3447265625,0,13.299072265625,5.9541015625,13.299072265625,13.29931640625v342.06982421875c0,7.34326171875-5.952880859375,13.2958984375-13.2958984375,13.2958984375h-151.72802734375V38.512563344600494h151.724853515625M393.773867329588029,35.512563344600494h-154.724853515625v374.6650390625h154.72802734375c8.985595703125,0,16.2958984375-7.310546875,16.2958984375-16.2958984375V51.811879750850494c0-8.9873046875-7.311767578125-16.29931640625-16.299072265625-16.29931640625h0Z"/>
        </g>
        <rect class="cls-8" x="38.512573242189319" y="142.537628517320627" width="165.02392578125" height="23.717599267320111"/>
        <rect class="cls-8" x="242.049072672479269" y="142.537628517320627" width="165.02392578125" height="23.717599267320111"/>
        <rect class="cls-8" x="38.512573242189319" y="279.434888482159295" width="165.02392578125" height="23.717599267331025"/>
        <rect class="cls-8" x="242.049072672479269" y="279.434888482159295" width="165.02392578125" height="23.717599267331025"/>
        <g>
          <rect class="cls-3" x="323.493838032713029" y="40.012563344600494" width="13.5908203125" height="365.6650390625"/>
          <path class="cls-2" d="M335.584658345213029,41.512563344600494v362.6650390625h-10.591064453125V41.512563344600494h10.591064453125M338.584658345213029,38.512563344600494h-16.591064453125v368.6650390625h16.591064453125V38.512563344600494h0Z"/>
        </g>
        <line class="cls-4" x1="222.792775665409863" x2="222.792775665409863" y2="445.864905721689865"/>
        <path class="cls-7" d="M20.441692258639705,57.304363161900255c-.673105224030223-.037922368479485-1.14772419027031-.196241695080971-1.423856898710255-.474957979778992,5.601612856220527-.044193572681252,11.394083512550424-.134859541081823,16.897488797800179-1.257584294169646,4.76845771447006-.972791432330268,9.555993979649429-2.842726980441512,12.054268142769615-7.291659341981358,1.353481954500239-3.361294991029354,2.307756830669859-6.418471489760122,2.856190037929991-10.047036941950864.589203139989877-5.357177322228381.902790370660114-10.715727970999069.940761691980697-16.075651946299331.646416647708975-.42409426481936.446575066759578-.229767988779713.474691088109466.352688061480876.080167533999884,1.66076361335945.180338908059639,3.318563269589504.23723736123975,5.109328706059387.274424883700704,6.40772161735913.808300052300183,12.894408102180023,2.84771379744052,18.9983191914489,2.223408425379603,5.023282480342459,6.44573317232971,7.42615163478149,11.625403796279898,8.670745979721687,5.913366784579921,1.420890128729297,12.452125907029767,1.4732303417004,18.512900559880109,1.54085058569035-.185512018379995.273729408458166-.660130984620082.432048735070566-1.423856898710255.474957979778992-2.80323153126028.064575578469885-4.932484014940201.495486199961306-7.73151532924021.715271509110607-1.594895637189438.125234265458857-1.726608470889914.217921457489865-3.453216941779829.402316536899889l-2.49441661002038.308618391869459c-11.695839804359821,1.187370395980906-15.073436903149741,7.051222657859398-16.894603351659498,18.039957919811059-.1022853006898.61717922124808-.274200779630519,1.940470153720526-.374779913860039,2.666875012018863-.148634856420358,2.608103942990056-.406308061320487,4.285221363519668-.613629108330315,6.83939739725065-.068073912540058,2.145671927000876-.167338604100223,3.605724892260696-.237237221689611,5.346807803898628-.023494932540416.585227962492354.167358114279523.774939086149971-.474691227659605.352687953520217-.148292211730222-4.594003078569585-.534667883450311-6.771364328398704-.702788315890757-11.359882192347868-.272871187079545-2.202595972701602-.608163773879824-5.821214830211829-1.208115583070139-8.342423940772278-2.323329574219315-8.477672872879339-8.730473299359801-13.136539877328687-17.364059393489697-13.695521601568544"/>
        <path class="cls-7" d="M383.417478102099267,274.531200735000311c-.506270008980209-.028522966618766-.863250373589835-.147601416811085-1.070941093829788-.357235350580595,4.21320246778032-.033239796159251,8.569956904450009-.101433384610573,12.709293435589643-.945880657529415,3.586552360150563-.731676281189721,7.187454479740154-2.138131398340192,9.066508805590274-5.484355652999511,1.018009215779784-2.5281676393206,1.735758436660035-4.82759530409021,2.148257515319528-7.556788004489135.443163814990839-4.029352490741076.679025615520004-8.059737916632002.707585401560209-12.091156277650953.486196437580475-.318978667221018.335887399150124-.172817915508858.357034610429764.265271136930096.060297285930574,1.249128337460206.135640279320796,2.496027361370579.178435936490132,3.842935394799497.206406195290583,4.819509884750005.607955576800123,9.698412480680418,2.141882187650481,14.289414023369318,1.6723165461799,3.778216504029842,4.848099932190053,5.585512815130642,8.743942364590112,6.521623199780151,4.447685366550104,1.068709664599737,9.365753926109392,1.108076882599562,13.924310788130242,1.158936837789952-.13953118749032.205883099901257-.496511552100856.324961550089938-1.070941093830697.357235350580595-2.108425253300084.048569937540378-3.709923259149946.372675465800057-5.815189357239433.537984999080436-1.199586334680134.094193820579676-1.298652951780241.163907654108698-2.597305903560482.30259874604053l-1.876152902169451.232124533340539c-8.796920171280362.89306990877958-11.337349293579791,5.30351337473985-12.707123173359832,13.568591257087974-.076932964190746.464205771590059-.206237637460617,1.459507083080098-.281887323970295,2.005865930110303-.111794363509944,1.961661801860828-.305600935050279,3.223090507541201-.461535586240643,5.144190919989342-.051201177890107,1.613847741700738-.12586221823949,2.712013379750715-.178435831529896,4.021553151280386-.017671501099358.440173921149835.125876892630004.58286342772044-.35703471539.265271055730409-.111536646400054-3.455337882949607-.402145614809342-5.093020462320055-.528595878149645-8.544232690670469-.205237596439474-1.656662648059864-.457424884350075-4.378374107200216-.908673213710244-6.27467874642025-1.747471334919283-6.376405007969879-6.566546563270094-9.88052970634817-13.060220291049518-10.300962756698937"/>
        <path class="cls-7" d="M344.283109222279563,236.979977943581616c-.720787416939856-.040608756331494-1.229027980960382-.210143287331448-1.524721692049752-.508603592999862,5.998426274489248-.047324207222118,12.201230550859691-.14441287452064,18.094492314849958-1.346670479761087,5.106251141849498-1.041703137479999,10.232932342479216-3.044103305321187,12.908182090280206-7.808194194109092,1.449361447569572-3.599406226032443,2.471236332029548-6.873150468351014,3.058520074169792-10.75876036425143.630941781710135-5.736675138310602.966743261039483-11.474820888439353,1.007404437979858-17.214437250358969.692208244920039-.45413673638177.478210058920013-.246044554720356.508317794950017.377672179238289.085846532890173,1.778410673810868.193113960599476,3.553647426340831.254043051079861,5.471269140180084.293864905509508,6.861639084270791.865559330110045,13.807836839030642,3.049443384109509,20.344143719710701,2.38091275853003,5.379127474119741,6.902343344990186,7.952213804810526,12.448937363780715,9.284974138559846,6.332264581959862,1.52154475863972,13.334223755049607,1.577592707100848,19.824338451409858,1.650003110791658-.198653529600051.293120163438289-.706894093620576.462654694429148-1.524721692059757.508603592999862-3.001810032600588.069150056689978-5.281896923820568.530586014549044-8.279209199730758.765940725239489-1.707876667089295.134105752709729-1.848919924199436.233358825378673-3.697839848409785.430816293019234l-2.671118928979922.33048065228104c-12.524362997850403,1.27148268964811-16.141226158879363,7.550725182889437-18.091402466199725,19.317892963048507-.109531103070367.660899664409953-.293624926120174,2.077931383999385-.40132899936998,2.85579413528103-.159164021320066,2.792859774468525-.435090573580055,4.588782745029675-.657098064550155,7.323894403700251-.072896209730061,2.297669473718997-.179192726340261,3.861151330429493-.254042901649882,5.725571052258601-.025159293270008.626685006071057.179213618599533.829835101931167-.508317944379996.377672063650607-.158797103959841-4.919438290178732-.572543294680145-7.251041930989231-.752573233390649-12.164606438678675-.292201146369734-2.35862596968218-.651245570529682-6.233584662732028-1.293697447889826-8.933394049830895-2.487912235269505-9.078223899539807-9.348932489939216-14.067121020099876-18.594114368699593-14.665700527059016"/>
        <path class="cls-7" d="M354.439176340019912,298.554656279429764c-.288892368890629-.016276033038594-.492595731440815-.084225654700276-.611110087620546-.203848864948668,2.404175676990235-.018967592961417,4.890266276090188-.057880834821844,7.252291904600497-.539746970989654,2.046590928039222-.417515733490291,4.101370245509315-1.220079865950538,5.17361321044973-3.129532597991783.580905620900012-1.442645871478817.990474169339905-2.754766070989717,1.225858122349564-4.31212267995943.252882142050112-2.299265541199929.387471734709834-4.599120505190513.403768777990081-6.899564891949922.277437806130365-.182018490459086.191667103920736-.098614921118497.203734316780356.1513714140292.034407382349855.712788903299952.07740028229,1.424305695551084.101820727029917,2.192890532820456.117781368950091,2.750152295920998.346917106789988,5.534195797561551,1.22222017526019,8.153954597750271.954272384309661,2.15596005434054,2.766466607209622,3.187255812250442,4.98954743207014,3.721427581820535,2.537978428269525.609836769310277,5.34437116610934.632300847099032,7.945616089339637.661323014470327-.079620547489867.117482875528367-.283323910030049.185432497179136-.61111008763055.203848864948668-1.203128676929737.027715416799765-2.116989945619935.212659443051962-3.318315916849315.306989863231138-.684518797839701.053749729358969-.741049086390376.093530467220262-1.482098172779843.17267163177894l-1.070587328330475.132456999479473c-5.019778107010097.509611624171157-6.469420736740176,3.026338742482039-7.251053489950209,7.742632195051556-.0439001834593.264889293519445-.117685184959555.832837124809885-.160853092899742,1.144605348859841-.063793110260121,1.119381189630076-.174384768009986,1.839189040219935-.263365608229833,2.93542472316949-.029216878950137.920908386578958-.071820636680059,1.547553589709423-.101820667139691,2.294815011598985-.010083871689858.251176021811261.071829010329566.332598797871469-.203734376670582.151371367721367-.063646049389718-1.971716136949908-.229475965879828-2.90622537406125-.301632158179928-4.875587292690398-.117114532509731-.945339815469197-.261019922359992-2.498427410919248-.518515323069551-3.580513905610132-.997157889220034-3.638561864529038-3.747062157570326-5.638117175099978-7.452540959030557-5.878028482749869"/>
        <path class="cls-7" d="M28.72560116358909,350.96382581143007c-.4977582063093-.028043416459695-.848736741129869-.145119827710005-1.052935604469894-.351229233778213,4.142366851659972-.032680943011655,8.425872165550572-.099728008141028,12.49561497177001-.929977780870104,3.526252469950123-.71937477406027,7.066613440089895-2.102183480781605,8.914075652360225-5.392148427081338,1.00089365804979-2.485662131040954,1.70657552431021-4.74643004076097,2.112139349650533-7.429737444179409.435713002429111-3.961607902521791.667609312069544-7.924231373670409.695688928919481-11.88787041345131.478022127299482-.313615751329053.330240200600201-.169912367158759.351031868620339.26081119355149.059283521359248,1.228127026439324.133359790109353,2.454062220258493.175435933619156,3.778324994858849.202935934820744,4.738480559739401.597734157770901,9.535355274480025,2.105871208930694,14.049169351010278,1.644200267919587,3.714694208110814,4.766589929189649,5.491604856821141,8.596932447650033,6.411976630201025,4.372907442700125,1.050741691749863,9.208289632630112,1.089447037647915,13.690204513530261,1.139451895960519-.137185281329948.202421634097846-.488163816150518.319498045369983-1.052935604470804.351229233778213-2.072976778399607.047753342210854-3.647549162039468.366409757840302-5.717419899399829.528939979480128-1.17941796210016.092610161271296-1.276818994670066.161151911961497-2.553637989340132.29751122207017l-1.844609569559907.228221876281168c-8.649019550520279.878054927248741-11.146737014999417,5.214346608969208-12.493481197660003,13.340465614159257-.075639507749656.456401185379946-.202770210909875,1.434968722000121-.277148016420142,1.972141761829334-.109914790259609,1.928680827550124-.300462935939322,3.168901418899623-.453775893260172,5.057702806459929-.050340344119832,1.586714486180426-.123746125349498,2.666416914789806-.175435830419701,3.953939691580672-.017374394169565.432773377009653.123760553020475.573063877298409-.351031971819793.260811113730597-.109661406089799-3.397244071951718-.395384431930324-5.007392666091619-.519708715710294-8.400580447130778-.201786983349848-1.628809555229964-.449734303669175-4.304761497800428-.893395897359369-6.16918399783026-1.718091496270063-6.269199958878744-6.45614470738019-9.714410604619843-12.840641773710558-10.127775009579636"/>
        <path class="cls-7" d="M63.96831485652001,376.879268078700989c-.302814562520325-.017060401569324-.516334721760359-.088284626119275-.640560477741019-.213672673640758,2.520036817270011-.0198816721404,5.12593617012044-.060670206488794,7.601791659461014-.565758256319896,2.145219477049977-.437636496470077,4.299021955369426-1.278877501190436,5.42293805457939-3.280349869310157.608900408589761-1.512169324889328,1.038206732219805-2.887522733180958,1.284934221170261-4.519930892780394.265068944209816-2.41007089121922.406144628479524-4.820759610469395.42322705280003-7.232066157750523.290807985729771-.190790257867775.200903853739874-.103367334728318.213552605229779.15866624894079.03606553012014.747139361090376.081130327919709,1.492945306019465.106727633649825,2.298569497990684.123457444879932,2.882686612769248.363635607000106,5.800897703660667,1.281120955480219,8.54690694583951,1.000260324230112,2.2598592796312,2.899787137289422,3.340854859241517,5.230001846649429,3.900769236101041,2.660287740990498.639225796137907,5.601925114160622.66277245441961,8.328528265500609.693193247288946-.08345759130043.123144566579867-.296977750550468.194368791129818-.640560477740109.213672673640758-1.261109406769719.029051067869659-2.219011137909547.222907847870374-3.478230963670285.321784204579671-.717506873209459.056340016330068-.776761448409161.098037852720154-1.553522896820141.180992958859861l-1.122180674789888.138840317949871c-5.261689387049955.534170638060459-6.781192655359519,3.172182933860313-7.600493563589225,8.11576224683995-.046015804769922.277654739858917-.123356625620545.872972901861431-.168604865330053,1.199765744238903-.066867404109871,1.173325991690945-.182788653910393,1.927822554571321-.276057625690555,3.076887619939953-.030624887929662.965288461120508-.075281790109329,1.622132716900524-.106727570880139,2.405405883371714-.010569829889391.263280603259773.075290567290722.348627275459876-.213552667999465.15866620037923-.066713256130242-2.066736347878759-.240534786290482-3.046281106660899-.316168302990263-5.110549782610178-.122758472510213-.9908972803496-.273598897400007-2.618830695708311-.543503420710294-3.753064700398681-1.045212551449367-3.813910084980307-3.927639183809333-5.909827221590604-7.811691041859376-6.161300245781604"/>
        <path class="cls-7" d="M60.751422793119673,102.675417337180988c-.370907106280356-.020896697071294-.632440579910508-.108136791481229-.784600420870447-.261720283251634,3.086706120920098-.024352373999136,6.27858229820049-.074312841959909,9.311172235400591-.692977761587827,2.627605297329865-.536045839951839,5.265723616679679-1.566452912022214,6.642369655759467-4.017987336910664.745821094880739-1.852204015040115,1.271663593630365-3.536826935900535,1.573871579290426-5.536307349650087.324673801169411-2.952012653458951.497472537739668-5.904782063149469.518396209719867-8.858308229080649.356200664769858-.233692401930966.246080196439834-.126611080690054.261573215580029.194344812129202.044175423089655.915145216622477.099373738529721,1.828657177820787.130726994860197,2.815438445240943.151218763229735,3.53090333892942.445404704500106,7.105319385011171,1.569200841749989,10.468811329990785,1.225184348159928,2.76802363482966,3.551849181209946,4.092097810809719,6.406048753669893,4.777917606139454,3.258494636759679.782965615449939,6.861604727469967.811807104479158,10.201326821559633.849068483728843-.102224323130031.15083552939177-.363757796760183.238075623801706-.784600420879542.261720283251634-1.544689386430036.035583650349508-2.717990155870211.273032129400235-4.260365059720243.394142366119922-.878849404969515.069008941478387-.951428289019532.120083182109738-1.902856578039973.221692028510006l-1.374520377589761.170060713520797c-6.444861728230535.654287178198501-8.306048837440358,3.885497390958335-9.309582242570286,9.940717068719096-.056363171080193.340089707879088-.151095273199644,1.069274377699912-.206518280329874,1.469551651389338-.08190357543026,1.437166511059331-.223891513400304,2.361323310229636-.338133457849835,3.768773449959554-.037511368230298,1.182348520071173-.092210066430198,1.9868943786405-.130726917970605,2.946298646360447-.012946619829563.322483324060158.092220817290581.427021517180037-.26157329246962.194344752640973-.08171476491043-2.531474021170652-.294622757930483-3.731284588211565-.387263642110156-6.25973604319006-.150362616090206-1.213715878871881-.335121846429502-3.207715332850057-.665718581550209-4.596999418241467-1.280244779799432-4.671526829779395-4.810829677689981-7.238743391919343-9.56827074443936-7.546764019898546"/>
        <g>
          <g>
            <rect class="cls-3" x="108.501162251463029" y="19.169789907100494" width="13.5908203125" height="407.3505859375"/>
            <path class="cls-2" d="M120.591982563963029,20.669301625850494v404.3515625h-10.591064453125V20.669301625850494h10.591064453125M123.591982563963029,17.669301625850494h-16.591064453125v410.3515625h16.591064453125V17.669301625850494h0Z"/>
          </g>
          <g>
            <rect class="cls-3" x="98.081728657713029" y="421.225453969600494" width="34.4296875" height="13.5908203125"/>
            <path class="cls-2" d="M131.011416157713029,422.725453969600494v10.5908203125h-31.429931640625v-10.5908203125h31.429931640625M134.011416157713029,419.725453969600494h-37.429931640625v16.5908203125h37.429931640625v-16.5908203125h0Z"/>
          </g>
          <g>
            <rect class="cls-3" x="98.081728657713029" y="10.873891469600494" width="34.4296875" height="13.5908203125"/>
            <path class="cls-2" d="M131.011416157713029,12.373891469600494v10.5908203125h-31.429931640625v-10.5908203125h31.429931640625M134.011416157713029,9.373891469600494h-37.429931640625v16.5908203125h37.429931640625V9.373891469600494h0Z"/>
          </g>
        </g>
        <g>
          <g>
            <polygon class="cls-3" points="171.847841938963029 426.520375844600494 171.847841938963029 342.120961782100494 138.624697407713029 342.120961782100494 138.624697407713029 328.530141469600494 171.847841938963029 328.530141469600494 171.847841938963029 19.169789907100494 185.439150532713029 19.169789907100494 185.439150532713029 426.520375844600494 171.847841938963029 426.520375844600494"/>
            <path class="cls-2" d="M183.938906392088029,20.669301625850494v404.3515625h-10.5908203125v-84.39990234375h-33.223388671875v-10.5908203125h33.223388671875V20.669301625850494h10.5908203125M186.938906392088029,17.669301625850494h-16.5908203125v309.36083984375h-33.223388671875v16.5908203125h33.223388671875v84.39990234375h16.5908203125V17.669301625850494h0Z"/>
          </g>
          <g>
            <rect class="cls-3" x="161.428408345213029" y="10.873891469600494" width="34.43017578125" height="13.5908203125"/>
            <path class="cls-2" d="M194.358584126463029,12.373891469600494v10.5908203125h-31.429931640625v-10.5908203125h31.429931640625M197.358584126463029,9.373891469600494h-37.429931640625v16.5908203125h37.429931640625V9.373891469600494h0Z"/>
          </g>
          <g>
            <rect class="cls-3" x="161.428408345213029" y="421.225453969600494" width="34.43017578125" height="13.5908203125"/>
            <path class="cls-2" d="M194.358584126463029,422.725453969600494v10.5908203125h-31.429931640625v-10.5908203125h31.429931640625M197.358584126463029,419.725453969600494h-37.429931640625v16.5908203125h37.429931640625v-16.5908203125h0Z"/>
          </g>
        </g>
        <g>
          <g>
            <rect class="cls-3" x="323.493838032713029" y="19.169789907100494" width="13.5908203125" height="407.3505859375"/>
            <path class="cls-2" d="M335.584658345213029,20.669301625850494v404.3515625h-10.591064453125V20.669301625850494h10.591064453125M338.584658345213029,17.669301625850494h-16.591064453125v410.3515625h16.591064453125V17.669301625850494h0Z"/>
          </g>
          <g>
            <rect class="cls-3" x="313.074404438963029" y="421.225453969600494" width="34.4296875" height="13.5908203125"/>
            <path class="cls-2" d="M346.004091938963029,422.725453969600494v10.5908203125h-31.429931640625v-10.5908203125h31.429931640625M349.004091938963029,419.725453969600494h-37.429931640625v16.5908203125h37.429931640625v-16.5908203125h0Z"/>
          </g>
          <g>
            <rect class="cls-3" x="313.074404438963029" y="10.873891469600494" width="34.4296875" height="13.5908203125"/>
            <path class="cls-2" d="M346.004091938963029,12.373891469600494v10.5908203125h-31.429931640625v-10.5908203125h31.429931640625M349.004091938963029,9.373891469600494h-37.429931640625v16.5908203125h37.429931640625V9.373891469600494h0Z"/>
          </g>
        </g>
        <g>
          <g>
            <polygon class="cls-3" points="260.146670063963029 426.520375844600494 260.146670063963029 19.169789907100494 273.737490376463029 19.169789907100494 273.737490376463029 328.530141469600494 306.960634907713029 328.530141469600494 306.960634907713029 342.120961782100494 273.737490376463029 342.120961782100494 273.737490376463029 426.520375844600494 260.146670063963029 426.520375844600494"/>
            <path class="cls-2" d="M272.237490376463029,20.669301625850494v309.36083984375h33.223388671875v10.5908203125h-33.223388671875v84.39990234375h-10.591064453125V20.669301625850494h10.591064453125M275.237490376463029,17.669301625850494h-16.591064453125v410.3515625h16.591064453125v-84.39990234375h33.223388671875v-16.5908203125h-33.223388671875V17.669301625850494h0Z"/>
          </g>
          <g>
            <rect class="cls-3" x="249.727236470213029" y="10.873891469600494" width="34.4296875" height="13.5908203125"/>
            <path class="cls-2" d="M282.656923970213029,12.373891469600494v10.5908203125h-31.429931640625v-10.5908203125h31.429931640625M285.656923970213029,9.373891469600494h-37.429931640625v16.5908203125h37.429931640625V9.373891469600494h0Z"/>
          </g>
          <g>
            <rect class="cls-3" x="249.727236470213029" y="421.225453969600494" width="34.4296875" height="13.5908203125"/>
            <path class="cls-2" d="M282.656923970213029,422.725453969600494v10.5908203125h-31.429931640625v-10.5908203125h31.429931640625M285.656923970213029,419.725453969600494h-37.429931640625v16.5908203125h37.429931640625v-16.5908203125h0Z"/>
          </g>
        </g>
      </g>
      <path class="cls-6" d="M285.59132737256914,204.338633132370887h-9.802001953129547v-23.022216796871362c0-29.192138671878638-23.664794921870453-52.85693359375-52.856872558590112-52.85693359375s-52.856872558590112,23.664794921871362-52.856872558590112,52.85693359375v23.022216796871362h-9.802001953129547c-23.448791503909888,0-42.457763671870453,19.009033203128638-42.457763671870453,42.457763671878638s19.008972167960565,42.457763671871362,42.457763671870453,42.457763671871362h125.317749023439319c23.448791503900793,0,42.457763671870453-19.009033203121362,42.457763671870453-42.457763671871362s-19.008972167969659-42.457763671878638-42.457763671870453-42.457763671878638ZM192.20070237256914,204.338633132370887h-7.332885742189319v-23.022216796871362c0-21.0224609375,17.042114257809772-38.064575195308862,38.064636230469659-38.064575195308862s38.064636230469659,17.042114257808862,38.064636230469659,38.064575195308862v23.022216796871362h-68.79638671875Z"/>
    </g>
  </g>
</svg>