<?xml version="1.0" encoding="UTF-8"?>
<svg id="_Слой_2" data-name="Слой 2" xmlns="http://www.w3.org/2000/svg" viewBox="0 0 756.9715004747 118.5383484433">
  <defs>
    <style>
      .cls-1 {
        fill: #f6cf5e;
      }
    </style>
  </defs>
  <g id="_Слой_2-2" data-name="Слой 2">
    <g>
      <g>
        <path class="cls-1" d="M20.9088220156,0h26.3418534471l-16.6282225145,94.6660116675h27.1649638934l-4.2805028692,23.8723288444H0L20.9088220156,0Z"/>
        <path class="cls-1" d="M101.4139132378,94.9953331515h-12.8416052395l-6.4208992516,23.5430073604h-24.0368929545l3.4573924229-19.9210508273L93.5113572036,0h35.8908236376l-2.4696212346,98.6172896845-3.457295791,19.9210508273h-24.2016503284l2.1402997505-23.5430073604ZM94.993110618,71.1230043071h8.5611023703l3.4573924229-38.5250089823h-1.6464141564l-10.3720806368,38.5250089823Z"/>
        <path class="cls-1" d="M167.9262235046,48.5677681351h-.8232070782l-12.3477196453,69.9705723768h-24.6955359226L150.9685828741,0h27.0004964151l8.0671201442,45.9335827904h.6585463362L210.7317353561,0h27.4943336934l-20.9088220156,118.5383405118h-24.6955842385l12.3477196453-69.9705723768h-.8231104463l-15.4758872161,28.8113780498h-15.4757905842l-5.2683706894-28.8113780498Z"/>
        <path class="cls-1" d="M225.5471919142,118.5383405118L246.4560139298,0h51.3666142218c6.7501241038,2.6341853447,11.1953843469,8.8903272224,9.3843094485,19.7563900853l-3.1281675708,17.6159937029c-1.6462208926,9.5489701905-4.7743884634,16.4637550363-16.2989010305,19.9210508273,8.8903272224,3.621956533,10.7014021208,11.5245125672,9.3843094485,19.5917293433l-3.9512780171,21.8967864677c-2.1403963824,12.5122837555-6.9147848458,17.1222047406-16.2990942943,19.7563900853h-51.3666142218ZM267.0355144614,97.9586467164l4.9392424692-27.6589461194-1.4817534144-1.6462208926h-9.8782916745l-5.4330314314,30.9515811684h9.8782916745l1.9755423766-1.6464141564ZM264.0722008964,49.7202000654h9.8780984108l1.8110748984-1.6464141564,4.9390492054-27.4942853774-1.3170926724-1.6464141564h-9.8780984108l-5.4330314314,30.7871136902Z"/>
        <path class="cls-1" d="M365.6510647719,98.7819504265c-2.1403963824,12.5122837555-6.9147848458,17.1222047406-16.2990942943,19.7563900853h-38.5250089823c-6.7501241038-2.6341853447-11.3598518251-8.8905204862-9.3843094485-19.7563900853l13.9942304336-79.0255603412c2.1402031187-12.5124770193,6.9147848458-17.1222047406,16.2990942943-19.7563900853h38.5248157185c6.7501241038,2.6341853447,11.1953843469,8.8903272224,9.3843094485,19.7563900853l-13.9940371698,79.0255603412ZM352.8094595324,22.225914688l-1.3172859361-1.6464141564h-8.2316842544l-1.9757356404,1.6464141564-13.0062659815,74.0865111358,1.3170926724,1.6462208926h8.2318775182l1.9755423766-1.6462208926,13.0064592453-74.0865111358Z"/>
      </g>
      <polygon class="cls-1" points="672.948441481 .0017956215 652.0400059929 118.5383484433 678.38185944 118.5383484433 699.2902949281 .0017956215 672.948441481 .0017956215"/>
      <polygon class="cls-1" points="707.5367214313 .0017956215 686.6282859432 118.5383484433 699.7992126668 118.5383484433 720.7076481548 .0017956215 707.5367214313 .0017956215"/>
      <polygon class="cls-1" points="728.9540746581 .0017956215 708.04563917 118.5383484433 714.6311025318 118.5383484433 735.5395380199 .0017956215 728.9540746581 .0017956215"/>
      <polygon class="cls-1" points="743.7859702566 .0017956215 722.8775347686 118.5383484433 726.1702664495 118.5383484433 747.0787019375 .0017956215 743.7859702566 .0017956215"/>
      <polygon class="cls-1" points="755.3251346342 .0017956215 734.4166991462 118.5383484433 736.0630649866 118.5383484433 756.9715004747 .0017956215 755.3251346342 .0017956215"/>
      <polygon class="cls-1" points="400.3976612024 97.9584241353 410.2760132743 97.9584241353 412.2516836886 96.31208044 425.2581564249 22.2243915845 423.9410428153 20.5780478892 414.0626907434 20.5780478892 400.3976612024 97.9584241353"/>
      <polygon class="cls-1" points="486.5021032352 20.5780478892 480.9044187112 51.8594478 490.7826741496 51.8594478 492.7584411974 50.2131041047 497.6975689166 22.2243915845 496.380455307 20.5780478892 486.5021032352 20.5780478892"/>
      <polygon class="cls-1" points="477.2823079681 72.439372108 469.2149629511 118.5383484433 489.1363304543 118.5383484433 480.7397553516 72.439372108 477.2823079681 72.439372108"/>
      <path class="cls-1" d="M442.7185604435.001699018c6.7453031027,2.6362565211,11.186092239,8.8917247825,9.3757616182,19.7531287069l-13.9942596267,79.0268165748c-2.1403337739,12.512579291-6.914894767,17.1224769245-16.2993533936,19.7567041437h21.0719817182L463.7813619861.001699018h-21.0628015426Z"/>
      <polygon class="cls-1" points="568.8198677988 20.5780478892 560.5879560556 20.5780478892 558.6121890078 22.2243915845 545.6057162716 96.31208044 546.9228298812 97.9584241353 555.1548382577 97.9584241353 557.1305086721 96.31208044 570.1369814083 22.2243915845 568.8198677988 20.5780478892"/>
      <path class="cls-1" d="M518.7695506348,98.7816442996l13.9943562601-79.0268165748c2.1392708062-12.5069745522,6.9105945795-17.1183216872,16.2867910481-19.7531287069h-33.8926283743c6.7452064693,2.6362082044,11.1858989722,8.8917247825,9.3756649848,19.7531287069l-4.445234274,25.1898219416c-2.1403337739,12.0185892123-6.7502314074,16.7931502054-15.3114698697,19.4273774246l8.3965751027,39.0195148421-2.9634573048,15.1468065102h17.9438610538c-6.7502314075-2.6342272192-11.360129041-8.8905651814-9.3844586266-19.7567041437Z"/>
      <polygon class="cls-1" points="624.9600235303 56.7986721526 634.8383756022 56.7986721526 636.8140460165 55.152231824 642.5763939001 22.2243915845 641.2592802905 20.5780478892 631.3809282187 20.5780478892 624.9600235303 56.7986721526"/>
      <path class="cls-1" d="M587.597385427.001699018c6.7453031027,2.6362082044,11.186092239,8.8917247825,9.3757616182,19.7531287069l-13.9942596267,79.0268165748c-2.1403337739,12.512579291-6.914894767,17.1224769245-16.2993533936,19.7567041437h21.0719817182L608.6601386529.001699018h-21.0627532259Z"/>
      <path class="cls-1" d="M672.5594270861.001699018h-12.522532534c6.7452064692,2.6362082044,11.1858989722,8.8917247825,9.3757616182,19.7531287069l-6.7502314075,37.8670645921c-2.1403337739,12.5124826576-6.914894767,17.1224769245-16.2993533936,19.7567041437h-25.025158582l-7.2441248527,41.1597519826h58.4656391516V.001699018Z"/>
    </g>
  </g>
</svg>